Commissioner-ThinLoud.ufo
<glyph name="quotesingle" format="2">
  <advance width="366"/>
  <unicode hex="0027"/>
  <outline>
    <contour>
      <point x="130" y="932" type="curve"/>
      <point x="182" y="934" type="line"/>
      <point x="182" y="1120"/>
      <point x="194" y="1306"/>
      <point x="206" y="1488" type="curve"/>
      <point x="104" y="1486" type="line"/>
      <point x="118" y="1304"/>
      <point x="130" y="1120"/>
    </contour>
  </outline>
</glyph>
<glyph name="asterisk" format="2">
  <advance width="916"/>
  <unicode hex="002A"/>
  <outline>
    <contour>
      <point x="820" y="770" type="curve"/>
      <point x="858" y="830" type="line"/>
      <point x="730" y="906"/>
      <point x="600" y="982"/>
      <point x="472" y="1058" type="curve"/>
      <point x="346" y="1142"/>
      <point x="220" y="1224"/>
      <point x="96" y="1306" type="curve"/>
      <point x="58" y="1246" type="line"/>
      <point x="186" y="1170"/>
      <point x="316" y="1094"/>
      <point x="446" y="1016" type="curve"/>
      <point x="570" y="934"/>
      <point x="696" y="852"/>
    </contour>
    <contour>
      <point x="96" y="770" type="line"/>
      <point x="220" y="852"/>
      <point x="346" y="934"/>
      <point x="472" y="1018" type="curve"/>
      <point x="600" y="1094"/>
      <point x="730" y="1170"/>
      <point x="858" y="1246" type="curve"/>
      <point x="820" y="1306" type="line"/>
      <point x="696" y="1224"/>
      <point x="570" y="1142"/>
      <point x="446" y="1060" type="curve"/>
      <point x="316" y="982"/>
      <point x="186" y="906"/>
      <point x="58" y="830" type="curve"/>
    </contour>
    <contour>
      <point x="422" y="588" type="curve"/>
      <point x="494" y="588" type="line"/>
      <point x="490" y="738"/>
      <point x="486" y="888"/>
      <point x="482" y="1040" type="curve"/>
      <point x="486" y="1188"/>
      <point x="490" y="1338"/>
      <point x="494" y="1488" type="curve"/>
      <point x="422" y="1488" type="line"/>
      <point x="426" y="1338"/>
      <point x="430" y="1188"/>
      <point x="434" y="1040" type="curve"/>
      <point x="430" y="888"/>
      <point x="426" y="738"/>
    </contour>
  </outline>
</glyph>
<glyph name="slash" format="2">
  <advance width="876"/>
  <unicode hex="002F"/>
  <outline>
    <contour>
      <point x="76" y="0" type="curve"/>
      <point x="150" y="0" type="line"/>
      <point x="216" y="148"/>
      <point x="272" y="272"/>
      <point x="354" y="456" type="curve"/>
      <point x="578" y="948" type="line"/>
      <point x="666" y="1138"/>
      <point x="726" y="1266"/>
      <point x="800" y="1426" type="curve"/>
      <point x="726" y="1426" type="line"/>
      <point x="658" y="1274"/>
      <point x="600" y="1144"/>
      <point x="514" y="952" type="curve"/>
      <point x="288" y="456" type="line"/>
      <point x="202" y="272"/>
      <point x="144" y="146"/>
    </contour>
  </outline>
</glyph>
<glyph name="two" format="2">
  <advance width="1086"/>
  <unicode hex="0032"/>
  <outline>
    <contour>
      <point x="106" y="0" type="line"/>
      <point x="966" y="0" type="line"/>
      <point x="966" y="66" type="line"/>
      <point x="802" y="64"/>
      <point x="636" y="62"/>
      <point x="472" y="60" type="curve"/>
      <point x="170" y="60" type="line"/>
      <point x="186" y="44" type="line"/>
      <point x="428" y="260" type="line"/>
      <point x="752" y="550"/>
      <point x="932" y="778"/>
      <point x="932" y="1016" type="curve" smooth="yes"/>
      <point x="932" y="1246"/>
      <point x="786" y="1392"/>
      <point x="532" y="1392" type="curve" smooth="yes"/>
      <point x="442" y="1392"/>
      <point x="206" y="1310"/>
      <point x="100" y="1270" type="curve"/>
      <point x="112" y="1196" type="line"/>
      <point x="292" y="1270"/>
      <point x="480" y="1328"/>
      <point x="532" y="1328" type="curve"/>
      <point x="758" y="1326"/>
      <point x="870" y="1222"/>
      <point x="870" y="1014" type="curve" smooth="yes"/>
      <point x="870" y="786"/>
      <point x="686" y="570"/>
      <point x="372" y="290" type="curve"/>
      <point x="284" y="214"/>
      <point x="194" y="136"/>
      <point x="106" y="60" type="curve"/>
    </contour>
  </outline>
</glyph>
<glyph name="six" format="2">
  <advance width="1198"/>
  <unicode hex="0036"/>
  <outline>
    <contour>
      <point x="624" y="-18" type="curve" smooth="yes"/>
      <point x="920" y="-18"/>
      <point x="1078" y="204"/>
      <point x="1078" y="442" type="curve" smooth="yes"/>
      <point x="1078" y="688"/>
      <point x="914" y="870"/>
      <point x="636" y="870" type="curve" smooth="yes"/>
      <point x="480" y="870"/>
      <point x="330" y="774"/>
      <point x="208" y="692" type="curve"/>
      <point x="184" y="694" type="line"/>
      <point x="180" y="666"/>
      <point x="180" y="630"/>
      <point x="184" y="588" type="curve"/>
      <point x="340" y="730"/>
      <point x="522" y="804"/>
      <point x="636" y="806" type="curve"/>
      <point x="902" y="804"/>
      <point x="1016" y="642"/>
      <point x="1016" y="442" type="curve" smooth="yes"/>
      <point x="1016" y="242"/>
      <point x="900" y="50"/>
      <point x="624" y="46" type="curve"/>
      <point x="340" y="50"/>
      <point x="192" y="256"/>
      <point x="192" y="642" type="curve" smooth="yes"/>
      <point x="192" y="1082"/>
      <point x="334" y="1324"/>
      <point x="638" y="1328" type="curve"/>
      <point x="682" y="1328"/>
      <point x="838" y="1278"/>
      <point x="986" y="1214" type="curve"/>
      <point x="1000" y="1286" type="line"/>
      <point x="912" y="1322"/>
      <point x="712" y="1392"/>
      <point x="638" y="1392" type="curve" smooth="yes"/>
      <point x="296" y="1392"/>
      <point x="130" y="1108"/>
      <point x="130" y="644" type="curve" smooth="yes"/>
      <point x="130" y="218"/>
      <point x="312" y="-18"/>
    </contour>
  </outline>
</glyph>
<glyph name="less" format="2">
  <advance width="1120"/>
  <unicode hex="003C"/>
  <outline>
    <contour>
      <point x="980" y="172" type="curve"/>
      <point x="980" y="250" type="line"/>
      <point x="822" y="318"/>
      <point x="648" y="394"/>
      <point x="486" y="464" type="curve"/>
      <point x="224" y="582" type="line"/>
      <point x="224" y="594" type="line"/>
      <point x="486" y="712" type="line"/>
      <point x="648" y="782"/>
      <point x="822" y="858"/>
      <point x="980" y="926" type="curve"/>
      <point x="980" y="1004" type="line"/>
      <point x="864" y="950"/>
      <point x="748" y="896"/>
      <point x="658" y="854" type="curve"/>
      <point x="458" y="764" type="line"/>
      <point x="362" y="722"/>
      <point x="254" y="674"/>
      <point x="140" y="624" type="curve"/>
      <point x="140" y="552" type="line"/>
      <point x="254" y="504"/>
      <point x="366" y="454"/>
      <point x="458" y="412" type="curve"/>
      <point x="658" y="322" type="line"/>
      <point x="752" y="278"/>
      <point x="868" y="224"/>
    </contour>
  </outline>
</glyph>
<glyph name="C" format="2">
  <advance width="1372"/>
  <unicode hex="0043"/>
  <anchor x="802" y="0" name="bottom"/>
  <anchor x="782" y="1426" name="top"/>
  <outline>
    <contour>
      <point x="834" y="-18" type="curve" smooth="yes"/>
      <point x="930" y="-18"/>
      <point x="1126" y="40"/>
      <point x="1250" y="86" type="curve"/>
      <point x="1238" y="164" type="line"/>
      <point x="1090" y="96"/>
      <point x="896" y="48"/>
      <point x="830" y="48" type="curve"/>
      <point x="408" y="54"/>
      <point x="186" y="346"/>
      <point x="186" y="716" type="curve" smooth="yes"/>
      <point x="186" y="1120"/>
      <point x="442" y="1378"/>
      <point x="804" y="1384" type="curve"/>
      <point x="860" y="1384"/>
      <point x="1060" y="1330"/>
      <point x="1252" y="1262" type="curve"/>
      <point x="1262" y="1338" type="line"/>
      <point x="1146" y="1374"/>
      <point x="900" y="1450"/>
      <point x="806" y="1450" type="curve" smooth="yes"/>
      <point x="414" y="1450"/>
      <point x="120" y="1152"/>
      <point x="120" y="718" type="curve" smooth="yes"/>
      <point x="120" y="306"/>
      <point x="390" y="-18"/>
    </contour>
  </outline>
</glyph>
<glyph name="G" format="2">
  <advance width="1474"/>
  <unicode hex="0047"/>
  <anchor x="802" y="0" name="bottom"/>
  <anchor x="802" y="1426" name="top"/>
  <outline>
    <contour>
      <point x="872" y="-18" type="curve" smooth="yes"/>
      <point x="976" y="-18"/>
      <point x="1186" y="32"/>
      <point x="1320" y="70" type="curve"/>
      <point x="1308" y="148" type="line"/>
      <point x="1150" y="88"/>
      <point x="942" y="48"/>
      <point x="872" y="48" type="curve"/>
      <point x="394" y="54"/>
      <point x="186" y="340"/>
      <point x="186" y="718" type="curve" smooth="yes"/>
      <point x="186" y="1124"/>
      <point x="440" y="1378"/>
      <point x="816" y="1384" type="curve" smooth="yes"/>
      <point x="874" y="1384"/>
      <point x="1080" y="1330"/>
      <point x="1280" y="1262" type="curve"/>
      <point x="1290" y="1338" type="line"/>
      <point x="1170" y="1374"/>
      <point x="914" y="1450"/>
      <point x="816" y="1450" type="curve" smooth="yes"/>
      <point x="404" y="1450"/>
      <point x="120" y="1144"/>
      <point x="120" y="718" type="curve" smooth="yes"/>
      <point x="120" y="306"/>
      <point x="374" y="-18"/>
    </contour>
    <contour>
      <point x="1248" y="70" type="curve"/>
      <point x="1320" y="70" type="line"/>
      <point x="1318" y="206"/>
      <point x="1318" y="300"/>
      <point x="1316" y="400" type="curve"/>
      <point x="1318" y="520"/>
      <point x="1318" y="604"/>
      <point x="1320" y="698" type="curve"/>
      <point x="1246" y="698" type="line"/>
      <point x="1248" y="604"/>
      <point x="1250" y="520"/>
      <point x="1252" y="400" type="curve"/>
      <point x="1250" y="300"/>
      <point x="1250" y="206"/>
    </contour>
  </outline>
</glyph>
<glyph name="K" format="2">
  <advance width="1294"/>
  <unicode hex="004B"/>
  <anchor x="664" y="0" name="bottom"/>
  <anchor x="664" y="1426" name="top"/>
  <outline>
    <contour>
      <point x="1122" y="0" type="curve"/>
      <point x="1232" y="0" type="line"/>
      <point x="1098" y="118"/>
      <point x="888" y="304"/>
      <point x="730" y="444" type="curve"/>
      <point x="394" y="748" type="line"/>
      <point x="394" y="720" type="line"/>
      <point x="694" y="990" type="line"/>
      <point x="854" y="1132"/>
      <point x="1016" y="1274"/>
      <point x="1188" y="1426" type="curve"/>
      <point x="1080" y="1426" type="line"/>
      <point x="904" y="1266"/>
      <point x="782" y="1156"/>
      <point x="646" y="1032" type="curve"/>
      <point x="352" y="766" type="line"/>
      <point x="268" y="766" type="line"/>
      <point x="268" y="704" type="line"/>
      <point x="350" y="704" type="line"/>
      <point x="694" y="392" type="line"/>
      <point x="826" y="272"/>
      <point x="960" y="148"/>
    </contour>
    <contour>
      <point x="216" y="0" type="curve"/>
      <point x="290" y="0" type="line"/>
      <point x="288" y="162"/>
      <point x="286" y="302"/>
      <point x="284" y="476" type="curve"/>
      <point x="284" y="950" type="line"/>
      <point x="286" y="1124"/>
      <point x="288" y="1264"/>
      <point x="290" y="1426" type="curve"/>
      <point x="216" y="1426" type="line"/>
      <point x="218" y="1264"/>
      <point x="218" y="1124"/>
      <point x="220" y="950" type="curve"/>
      <point x="220" y="476" type="line"/>
      <point x="218" y="302"/>
      <point x="218" y="162"/>
    </contour>
  </outline>
</glyph>
<glyph name="M" format="2">
  <advance width="1900"/>
  <unicode hex="004D"/>
  <anchor x="950" y="0" name="bottom"/>
  <anchor x="950" y="1426" name="top"/>
  <outline>
    <contour>
      <point x="152" y="0" type="curve"/>
      <point x="230" y="0" type="line"/>
      <point x="264" y="298"/>
      <point x="294" y="562"/>
      <point x="320" y="792" type="curve"/>
      <point x="380" y="1288" type="line"/>
      <point x="386" y="1288" type="line"/>
      <point x="612" y="748" type="line"/>
      <point x="716" y="496"/>
      <point x="834" y="208"/>
      <point x="920" y="0" type="curve"/>
      <point x="982" y="0" type="line"/>
      <point x="1074" y="224"/>
      <point x="1184" y="490"/>
      <point x="1292" y="752" type="curve"/>
      <point x="1518" y="1288" type="line"/>
      <point x="1524" y="1288" type="line"/>
      <point x="1584" y="792" type="line"/>
      <point x="1610" y="560"/>
      <point x="1640" y="292"/>
      <point x="1672" y="0" type="curve"/>
      <point x="1748" y="0" type="line"/>
      <point x="1728" y="162"/>
      <point x="1708" y="304"/>
      <point x="1686" y="476" type="curve"/>
      <point x="1630" y="946" type="line"/>
      <point x="1610" y="1122"/>
      <point x="1594" y="1264"/>
      <point x="1576" y="1426" type="curve"/>
      <point x="1498" y="1426" type="line"/>
      <point x="1404" y="1194"/>
      <point x="1314" y="972"/>
      <point x="1226" y="756" type="curve"/>
      <point x="956" y="110" type="line"/>
      <point x="948" y="110" type="line"/>
      <point x="678" y="756" type="line"/>
      <point x="590" y="974"/>
      <point x="500" y="1194"/>
      <point x="406" y="1426" type="curve"/>
      <point x="326" y="1426" type="line"/>
      <point x="308" y="1260"/>
      <point x="292" y="1112"/>
      <point x="274" y="946" type="curve"/>
      <point x="216" y="476" type="line"/>
      <point x="192" y="302"/>
      <point x="174" y="162"/>
    </contour>
  </outline>
</glyph>
<glyph name="N" format="2">
  <advance width="1516"/>
  <unicode hex="004E"/>
  <anchor x="758" y="0" name="bottom"/>
  <anchor x="758" y="1426" name="top"/>
  <outline>
    <contour>
      <point x="216" y="0" type="curve"/>
      <point x="290" y="0" type="line"/>
      <point x="288" y="162"/>
      <point x="286" y="302"/>
      <point x="284" y="476" type="curve"/>
      <point x="284" y="1310" type="line"/>
      <point x="292" y="1310" type="line"/>
      <point x="662" y="792" type="line"/>
      <point x="882" y="482"/>
      <point x="1060" y="232"/>
      <point x="1226" y="0" type="curve"/>
      <point x="1300" y="0" type="line"/>
      <point x="1298" y="162"/>
      <point x="1296" y="302"/>
      <point x="1294" y="476" type="curve"/>
      <point x="1294" y="950" type="line"/>
      <point x="1296" y="1124"/>
      <point x="1298" y="1264"/>
      <point x="1300" y="1426" type="curve"/>
      <point x="1226" y="1426" type="line"/>
      <point x="1228" y="1264"/>
      <point x="1228" y="1124"/>
      <point x="1230" y="950" type="curve"/>
      <point x="1230" y="124" type="line"/>
      <point x="1222" y="124" type="line"/>
      <point x="852" y="638" type="line"/>
      <point x="672" y="892"/>
      <point x="488" y="1150"/>
      <point x="292" y="1426" type="curve"/>
      <point x="216" y="1426" type="line"/>
      <point x="218" y="1264"/>
      <point x="218" y="1124"/>
      <point x="220" y="950" type="curve"/>
      <point x="220" y="476" type="line"/>
      <point x="218" y="302"/>
      <point x="218" y="162"/>
    </contour>
  </outline>
</glyph>
<glyph name="S" format="2">
  <advance width="1150"/>
  <unicode hex="0053"/>
  <anchor x="586" y="0" name="bottom"/>
  <anchor x="586" y="1426" name="top"/>
  <outline>
    <contour>
      <point x="604" y="-18" type="curve" smooth="yes"/>
      <point x="916" y="-18"/>
      <point x="1054" y="160"/>
      <point x="1054" y="370" type="curve" smooth="yes"/>
      <point x="1054" y="556"/>
      <point x="946" y="652"/>
      <point x="602" y="766" type="curve" smooth="yes"/>
      <point x="318" y="860"/>
      <point x="198" y="924"/>
      <point x="198" y="1090" type="curve" smooth="yes"/>
      <point x="198" y="1298"/>
      <point x="370" y="1380"/>
      <point x="564" y="1384" type="curve"/>
      <point x="610" y="1384"/>
      <point x="790" y="1330"/>
      <point x="952" y="1268" type="curve"/>
      <point x="962" y="1344" type="line"/>
      <point x="860" y="1378"/>
      <point x="648" y="1450"/>
      <point x="570" y="1450" type="curve" smooth="yes"/>
      <point x="288" y="1450"/>
      <point x="132" y="1290"/>
      <point x="132" y="1090" type="curve" smooth="yes"/>
      <point x="132" y="888"/>
      <point x="292" y="800"/>
      <point x="574" y="708" type="curve" smooth="yes"/>
      <point x="840" y="622"/>
      <point x="988" y="552"/>
      <point x="988" y="370" type="curve" smooth="yes"/>
      <point x="988" y="132"/>
      <point x="816" y="52"/>
      <point x="604" y="48" type="curve"/>
      <point x="502" y="48"/>
      <point x="344" y="96"/>
      <point x="160" y="158" type="curve"/>
      <point x="148" y="84" type="line"/>
      <point x="314" y="32"/>
      <point x="502" y="-18"/>
    </contour>
  </outline>
</glyph>
<glyph name="V" format="2">
  <advance width="1336"/>
  <unicode hex="0056"/>
  <anchor x="670" y="0" name="bottom"/>
  <anchor x="670" y="1426" name="top"/>
  <outline>
    <contour>
      <point x="620" y="0" type="curve"/>
      <point x="724" y="0" type="line"/>
      <point x="780" y="148"/>
      <point x="842" y="312"/>
      <point x="894" y="450" type="curve"/>
      <point x="1068" y="900" type="line"/>
      <point x="1130" y="1054"/>
      <point x="1208" y="1252"/>
      <point x="1278" y="1426" type="curve"/>
      <point x="1196" y="1426" type="line"/>
      <point x="1108" y="1194"/>
      <point x="1014" y="942"/>
      <point x="928" y="714" type="curve"/>
      <point x="678" y="72" type="line"/>
      <point x="666" y="72" type="line"/>
      <point x="414" y="712" type="line"/>
      <point x="328" y="936"/>
      <point x="226" y="1202"/>
      <point x="140" y="1426" type="curve"/>
      <point x="56" y="1426" type="line"/>
      <point x="126" y="1254"/>
      <point x="208" y="1052"/>
      <point x="270" y="900" type="curve"/>
      <point x="448" y="452" type="line"/>
      <point x="500" y="316"/>
      <point x="568" y="138"/>
    </contour>
  </outline>
</glyph>
<glyph name="W" format="2">
  <advance width="1998"/>
  <unicode hex="0057"/>
  <anchor x="998" y="0" name="bottom"/>
  <anchor x="998" y="1426" name="top"/>
  <outline>
    <contour>
      <point x="492" y="0" type="curve"/>
      <point x="608" y="0" type="line"/>
      <point x="668" y="216"/>
      <point x="744" y="486"/>
      <point x="806" y="706" type="curve"/>
      <point x="992" y="1344" type="line"/>
      <point x="1004" y="1344" type="line"/>
      <point x="1192" y="706" type="line"/>
      <point x="1254" y="486"/>
      <point x="1330" y="222"/>
      <point x="1392" y="0" type="curve"/>
      <point x="1508" y="0" type="line"/>
      <point x="1546" y="134"/>
      <point x="1596" y="308"/>
      <point x="1638" y="452" type="curve"/>
      <point x="1776" y="900" type="line"/>
      <point x="1826" y="1058"/>
      <point x="1888" y="1252"/>
      <point x="1944" y="1426" type="curve"/>
      <point x="1862" y="1426" type="line"/>
      <point x="1796" y="1202"/>
      <point x="1718" y="938"/>
      <point x="1652" y="716" type="curve"/>
      <point x="1456" y="74" type="line"/>
      <point x="1444" y="74" type="line"/>
      <point x="1256" y="714" type="line"/>
      <point x="1190" y="942"/>
      <point x="1118" y="1198"/>
      <point x="1052" y="1426" type="curve"/>
      <point x="942" y="1426" type="line"/>
      <point x="880" y="1204"/>
      <point x="804" y="934"/>
      <point x="742" y="716" type="curve"/>
      <point x="556" y="74" type="line"/>
      <point x="544" y="74" type="line"/>
      <point x="350" y="710" type="line"/>
      <point x="282" y="940"/>
      <point x="206" y="1196"/>
      <point x="138" y="1426" type="curve"/>
      <point x="56" y="1426" type="line"/>
      <point x="110" y="1256"/>
      <point x="176" y="1052"/>
      <point x="226" y="896" type="curve"/>
      <point x="362" y="450" type="line"/>
      <point x="402" y="312"/>
      <point x="450" y="142"/>
    </contour>
  </outline>
</glyph>
<glyph name="Y" format="2">
  <advance width="1258"/>
  <unicode hex="0059"/>
  <anchor x="630" y="0" name="bottom"/>
  <anchor x="630" y="1426" name="top"/>
  <anchor x="40" y="1426" name="topleft"/>
  <outline>
    <contour>
      <point x="600" y="600" type="line"/>
      <point x="660" y="600" type="line"/>
      <point x="986" y="1102" type="line"/>
      <point x="1054" y="1204"/>
      <point x="1128" y="1316"/>
      <point x="1200" y="1426" type="curve"/>
      <point x="1112" y="1426" type="line"/>
      <point x="980" y="1216"/>
      <point x="912" y="1108"/>
      <point x="804" y="938" type="curve"/>
      <point x="636" y="678" type="line"/>
      <point x="624" y="678" type="line"/>
      <point x="450" y="948" type="line"/>
      <point x="348" y="1110"/>
      <point x="282" y="1216"/>
      <point x="150" y="1426" type="curve"/>
      <point x="62" y="1426" type="line"/>
      <point x="146" y="1298"/>
      <point x="210" y="1202"/>
      <point x="276" y="1102" type="curve"/>
    </contour>
    <contour>
      <point x="594" y="0" type="curve"/>
      <point x="668" y="0" type="line"/>
      <point x="666" y="162"/>
      <point x="664" y="302"/>
      <point x="662" y="476" type="curve"/>
      <point x="662" y="652" type="line"/>
      <point x="598" y="652" type="line"/>
      <point x="598" y="476" type="line"/>
      <point x="596" y="302"/>
      <point x="596" y="162"/>
    </contour>
  </outline>
</glyph>
<glyph name="backslash" format="2">
  <advance width="876"/>
  <unicode hex="005C"/>
  <outline>
    <contour>
      <point x="726" y="0" type="curve"/>
      <point x="800" y="0" type="line"/>
      <point x="732" y="146"/>
      <point x="674" y="272"/>
      <point x="588" y="456" type="curve"/>
      <point x="362" y="952" type="line"/>
      <point x="276" y="1144"/>
      <point x="218" y="1274"/>
      <point x="150" y="1426" type="curve"/>
      <point x="76" y="1426" type="line"/>
      <point x="150" y="1266"/>
      <point x="210" y="1138"/>
      <point x="298" y="948" type="curve"/>
      <point x="522" y="456" type="line"/>
      <point x="604" y="272"/>
      <point x="660" y="148"/>
    </contour>
  </outline>
</glyph>
<glyph name="asciicircum" format="2">
  <advance width="1180"/>
  <unicode hex="005E"/>
  <outline>
    <contour>
      <point x="970" y="788" type="curve"/>
      <point x="1044" y="790" type="line"/>
      <point x="910" y="982"/>
      <point x="776" y="1176"/>
      <point x="642" y="1368" type="curve"/>
      <point x="538" y="1368" type="line"/>
      <point x="404" y="1176"/>
      <point x="270" y="986"/>
      <point x="136" y="794" type="curve"/>
      <point x="210" y="794" type="line"/>
      <point x="334" y="966"/>
      <point x="460" y="1140"/>
      <point x="584" y="1312" type="curve"/>
      <point x="596" y="1312" type="line"/>
      <point x="720" y="1138"/>
      <point x="846" y="962"/>
    </contour>
  </outline>
</glyph>
<glyph name="underscore" format="2">
  <advance width="760"/>
  <unicode hex="005F"/>
  <outline>
    <contour>
      <point x="-20" y="-180" type="line"/>
      <point x="96" y="-178"/>
      <point x="230" y="-176"/>
      <point x="300" y="-176" type="curve"/>
      <point x="460" y="-176" type="line"/>
      <point x="530" y="-176"/>
      <point x="664" y="-178"/>
      <point x="780" y="-180" type="curve"/>
      <point x="780" y="-116" type="line"/>
      <point x="664" y="-118"/>
      <point x="530" y="-120"/>
      <point x="460" y="-120" type="curve"/>
      <point x="300" y="-120" type="line"/>
      <point x="230" y="-120"/>
      <point x="96" y="-118"/>
      <point x="-20" y="-116" type="curve"/>
    </contour>
  </outline>
</glyph>
<glyph name="b" format="2">
  <advance width="1180"/>
  <unicode hex="0062"/>
  <outline>
    <contour>
      <point x="614" y="-18" type="curve" smooth="yes"/>
      <point x="906" y="-18"/>
      <point x="1056" y="220"/>
      <point x="1056" y="498" type="curve" smooth="yes"/>
      <point x="1056" y="792"/>
      <point x="888" y="1008"/>
      <point x="610" y="1008" type="curve" smooth="yes"/>
      <point x="490" y="1008"/>
      <point x="374" y="928"/>
      <point x="280" y="860" type="curve"/>
      <point x="268" y="860" type="line"/>
      <point x="268" y="988" type="line"/>
      <point x="270" y="1158"/>
      <point x="272" y="1316"/>
      <point x="274" y="1480" type="curve"/>
      <point x="196" y="1458" type="line"/>
      <point x="200" y="1314"/>
      <point x="204" y="1158"/>
      <point x="208" y="988" type="curve"/>
      <point x="208" y="442" type="line"/>
      <point x="206" y="280"/>
      <point x="206" y="150"/>
      <point x="204" y="0" type="curve"/>
      <point x="260" y="0" type="line"/>
      <point x="266" y="142" type="line"/>
      <point x="278" y="142" type="line"/>
      <point x="378" y="58"/>
      <point x="518" y="-18"/>
    </contour>
    <contour>
      <point x="614" y="46" type="curve"/>
      <point x="504" y="50"/>
      <point x="366" y="138"/>
      <point x="268" y="232" type="curve"/>
      <point x="268" y="768" type="line"/>
      <point x="386" y="882"/>
      <point x="524" y="942"/>
      <point x="610" y="944" type="curve"/>
      <point x="872" y="938"/>
      <point x="994" y="744"/>
      <point x="994" y="498" type="curve" smooth="yes"/>
      <point x="994" y="262"/>
      <point x="882" y="52"/>
    </contour>
  </outline>
</glyph>
<glyph name="d" format="2">
  <advance width="1144"/>
  <unicode hex="0064"/>
  <anchor x="612" y="0" name="bottom"/>
  <anchor x="578" y="494" name="center"/>
  <anchor x="612" y="1446" name="top"/>
  <anchor x="1090" y="988" name="topright"/>
  <outline>
    <contour>
      <point x="566" y="-18" type="curve" smooth="yes"/>
      <point x="662" y="-18"/>
      <point x="802" y="58"/>
      <point x="902" y="142" type="curve"/>
      <point x="914" y="142" type="line"/>
      <point x="918" y="0" type="line"/>
      <point x="978" y="0" type="line"/>
      <point x="976" y="150"/>
      <point x="974" y="280"/>
      <point x="972" y="442" type="curve"/>
      <point x="972" y="988" type="line"/>
      <point x="974" y="1158"/>
      <point x="976" y="1316"/>
      <point x="978" y="1480" type="curve"/>
      <point x="900" y="1458" type="line"/>
      <point x="904" y="1314"/>
      <point x="908" y="1158"/>
      <point x="912" y="988" type="curve"/>
      <point x="912" y="860" type="line"/>
      <point x="900" y="860" type="line"/>
      <point x="806" y="928"/>
      <point x="690" y="1008"/>
      <point x="570" y="1008" type="curve" smooth="yes"/>
      <point x="292" y="1008"/>
      <point x="124" y="792"/>
      <point x="124" y="498" type="curve" smooth="yes"/>
      <point x="124" y="220"/>
      <point x="274" y="-18"/>
    </contour>
    <contour>
      <point x="566" y="46" type="curve"/>
      <point x="298" y="52"/>
      <point x="186" y="262"/>
      <point x="186" y="498" type="curve" smooth="yes"/>
      <point x="186" y="744"/>
      <point x="308" y="938"/>
      <point x="570" y="944" type="curve"/>
      <point x="656" y="942"/>
      <point x="794" y="882"/>
      <point x="912" y="768" type="curve"/>
      <point x="912" y="232" type="line"/>
      <point x="814" y="138"/>
      <point x="676" y="50"/>
    </contour>
  </outline>
</glyph>
<glyph name="k" format="2">
  <advance width="1032"/>
  <unicode hex="006B"/>
  <anchor x="536" y="0" name="bottom"/>
  <anchor x="536" y="1446" name="top"/>
  <outline>
    <contour>
      <point x="874" y="0" type="curve"/>
      <point x="984" y="0" type="line"/>
      <point x="842" y="114"/>
      <point x="704" y="226"/>
      <point x="562" y="340" type="curve"/>
      <point x="342" y="518" type="line"/>
      <point x="342" y="480" type="line"/>
      <point x="536" y="646" type="line"/>
      <point x="674" y="760"/>
      <point x="804" y="872"/>
      <point x="944" y="988" type="curve"/>
      <point x="838" y="988" type="line"/>
      <point x="726" y="890"/>
      <point x="612" y="790"/>
      <point x="500" y="692" type="curve"/>
      <point x="314" y="532" type="line"/>
      <point x="254" y="532" type="line"/>
      <point x="254" y="476" type="line"/>
      <point x="300" y="476" type="line"/>
      <point x="526" y="294" type="line"/>
      <point x="642" y="196"/>
      <point x="758" y="98"/>
    </contour>
    <contour>
      <point x="204" y="0" type="curve"/>
      <point x="274" y="0" type="line"/>
      <point x="272" y="150"/>
      <point x="270" y="280"/>
      <point x="268" y="442" type="curve"/>
      <point x="268" y="988" type="line"/>
      <point x="270" y="1158"/>
      <point x="272" y="1316"/>
      <point x="274" y="1480" type="curve"/>
      <point x="196" y="1458" type="line"/>
      <point x="200" y="1314"/>
      <point x="204" y="1158"/>
      <point x="208" y="988" type="curve"/>
      <point x="208" y="442" type="line"/>
      <point x="206" y="280"/>
      <point x="206" y="150"/>
    </contour>
  </outline>
</glyph>
<glyph name="m" format="2">
  <advance width="1754"/>
  <unicode hex="006D"/>
  <anchor x="902" y="0" name="bottom"/>
  <anchor x="902" y="988" name="top"/>
  <outline>
    <contour>
      <point x="216" y="0" type="curve"/>
      <point x="286" y="0" type="line"/>
      <point x="284" y="150"/>
      <point x="282" y="280"/>
      <point x="280" y="442" type="curve"/>
      <point x="280" y="702" type="line"/>
      <point x="416" y="842"/>
      <point x="556" y="944"/>
      <point x="640" y="944" type="curve" smooth="yes"/>
      <point x="816" y="944"/>
      <point x="872" y="844"/>
      <point x="872" y="652" type="curve"/>
      <point x="872" y="442" type="line"/>
      <point x="870" y="280"/>
      <point x="870" y="150"/>
      <point x="868" y="0" type="curve"/>
      <point x="938" y="0" type="line"/>
      <point x="936" y="150"/>
      <point x="934" y="280"/>
      <point x="932" y="442" type="curve"/>
      <point x="932" y="494"/>
      <point x="934" y="566"/>
      <point x="934" y="652" type="curve" smooth="yes"/>
      <point x="934" y="690"/>
      <point x="932" y="724"/>
      <point x="926" y="758" type="curve"/>
      <point x="924" y="766" type="line"/>
      <point x="900" y="924"/>
      <point x="812" y="1008"/>
      <point x="644" y="1008" type="curve" smooth="yes"/>
      <point x="524" y="1008"/>
      <point x="374" y="874"/>
      <point x="292" y="798" type="curve"/>
      <point x="280" y="798" type="line"/>
      <point x="268" y="994" type="line"/>
      <point x="202" y="988" type="line"/>
      <point x="208" y="886"/>
      <point x="216" y="780"/>
      <point x="220" y="684" type="curve"/>
      <point x="220" y="442" type="line"/>
      <point x="218" y="280"/>
      <point x="218" y="150"/>
    </contour>
    <contour>
      <point x="1510" y="0" type="curve"/>
      <point x="1580" y="0" type="line"/>
      <point x="1578" y="150"/>
      <point x="1576" y="280"/>
      <point x="1574" y="442" type="curve"/>
      <point x="1574" y="494"/>
      <point x="1576" y="566"/>
      <point x="1576" y="652" type="curve" smooth="yes"/>
      <point x="1576" y="880"/>
      <point x="1492" y="1008"/>
      <point x="1286" y="1008" type="curve" smooth="yes"/>
      <point x="1166" y="1008"/>
      <point x="1016" y="878"/>
      <point x="928" y="792" type="curve"/>
      <point x="916" y="792" type="line"/>
      <point x="922" y="702" type="line"/>
      <point x="1058" y="842"/>
      <point x="1198" y="944"/>
      <point x="1282" y="944" type="curve" smooth="yes"/>
      <point x="1458" y="944"/>
      <point x="1514" y="844"/>
      <point x="1514" y="652" type="curve"/>
      <point x="1514" y="442" type="line"/>
      <point x="1512" y="280"/>
      <point x="1512" y="150"/>
    </contour>
  </outline>
</glyph>
<glyph name="q" format="2">
  <advance width="1172"/>
  <unicode hex="0071"/>
  <outline>
    <contour>
      <point x="906" y="-388" type="curve"/>
      <point x="978" y="-384" type="line"/>
      <point x="976" y="-234"/>
      <point x="974" y="-104"/>
      <point x="972" y="58" type="curve"/>
      <point x="972" y="684" type="line"/>
      <point x="976" y="782"/>
      <point x="984" y="890"/>
      <point x="990" y="994" type="curve"/>
      <point x="924" y="988" type="line"/>
      <point x="916" y="856" type="line"/>
      <point x="904" y="856" type="line"/>
      <point x="810" y="926"/>
      <point x="690" y="1008"/>
      <point x="570" y="1008" type="curve" smooth="yes"/>
      <point x="292" y="1008"/>
      <point x="124" y="792"/>
      <point x="124" y="498" type="curve" smooth="yes"/>
      <point x="124" y="220"/>
      <point x="274" y="-18"/>
      <point x="566" y="-18" type="curve" smooth="yes"/>
      <point x="662" y="-18"/>
      <point x="800" y="58"/>
      <point x="900" y="142" type="curve"/>
      <point x="912" y="142" type="line"/>
      <point x="912" y="58" type="line"/>
      <point x="910" y="-104"/>
      <point x="908" y="-238"/>
    </contour>
    <contour>
      <point x="566" y="46" type="curve"/>
      <point x="298" y="52"/>
      <point x="186" y="262"/>
      <point x="186" y="498" type="curve" smooth="yes"/>
      <point x="186" y="744"/>
      <point x="308" y="938"/>
      <point x="570" y="944" type="curve"/>
      <point x="656" y="942"/>
      <point x="794" y="882"/>
      <point x="912" y="768" type="curve"/>
      <point x="912" y="232" type="line"/>
      <point x="814" y="138"/>
      <point x="676" y="50"/>
    </contour>
  </outline>
</glyph>
<glyph name="r" format="2">
  <advance width="788"/>
  <unicode hex="0072"/>
  <anchor x="240" y="0" name="bottom"/>
  <anchor x="464" y="988" name="top"/>
  <outline>
    <contour>
      <point x="216" y="0" type="curve"/>
      <point x="286" y="0" type="line"/>
      <point x="284" y="150"/>
      <point x="282" y="280"/>
      <point x="280" y="442" type="curve"/>
      <point x="280" y="676" type="line"/>
      <point x="458" y="882"/>
      <point x="542" y="944"/>
      <point x="612" y="944" type="curve" smooth="yes"/>
      <point x="626" y="944"/>
      <point x="672" y="932"/>
      <point x="722" y="920" type="curve"/>
      <point x="728" y="994" type="line"/>
      <point x="692" y="1000"/>
      <point x="632" y="1008"/>
      <point x="610" y="1008" type="curve" smooth="yes"/>
      <point x="534" y="1008"/>
      <point x="434" y="944"/>
      <point x="286" y="772" type="curve"/>
      <point x="276" y="772" type="line"/>
      <point x="266" y="994" type="line"/>
      <point x="202" y="988" type="line"/>
      <point x="208" y="886"/>
      <point x="216" y="780"/>
      <point x="220" y="684" type="curve"/>
      <point x="220" y="442" type="line"/>
      <point x="218" y="280"/>
      <point x="218" y="150"/>
    </contour>
  </outline>
</glyph>
<glyph name="s" format="2">
  <advance width="892"/>
  <unicode hex="0073"/>
  <anchor x="444" y="0" name="bottom"/>
  <anchor x="444" y="988" name="top"/>
  <outline>
    <contour>
      <point x="458" y="-18" type="curve" smooth="yes"/>
      <point x="682" y="-18"/>
      <point x="778" y="112"/>
      <point x="778" y="260" type="curve" smooth="yes"/>
      <point x="778" y="434"/>
      <point x="644" y="480"/>
      <point x="460" y="536" type="curve" smooth="yes"/>
      <point x="280" y="590"/>
      <point x="208" y="634"/>
      <point x="208" y="748" type="curve" smooth="yes"/>
      <point x="208" y="916"/>
      <point x="350" y="940"/>
      <point x="440" y="944" type="curve"/>
      <point x="472" y="944"/>
      <point x="594" y="906"/>
      <point x="708" y="862" type="curve"/>
      <point x="716" y="934" type="line"/>
      <point x="644" y="958"/>
      <point x="496" y="1008"/>
      <point x="440" y="1008" type="curve" smooth="yes"/>
      <point x="258" y="1008"/>
      <point x="146" y="902"/>
      <point x="146" y="750" type="curve" smooth="yes"/>
      <point x="146" y="586"/>
      <point x="278" y="530"/>
      <point x="420" y="486" type="curve" smooth="yes"/>
      <point x="642" y="418"/>
      <point x="716" y="380"/>
      <point x="716" y="266" type="curve" smooth="yes"/>
      <point x="716" y="92"/>
      <point x="598" y="50"/>
      <point x="458" y="46" type="curve"/>
      <point x="386" y="46"/>
      <point x="274" y="84"/>
      <point x="144" y="132" type="curve"/>
      <point x="134" y="60" type="line"/>
      <point x="252" y="20"/>
      <point x="386" y="-18"/>
    </contour>
  </outline>
</glyph>
<glyph name="v" format="2">
  <advance width="992"/>
  <unicode hex="0076"/>
  <outline>
    <contour>
      <point x="450" y="0" type="curve"/>
      <point x="538" y="0" type="line"/>
      <point x="586" y="124"/>
      <point x="632" y="246"/>
      <point x="678" y="370" type="curve"/>
      <point x="746" y="546" type="line"/>
      <point x="806" y="692"/>
      <point x="864" y="838"/>
      <point x="926" y="988" type="curve"/>
      <point x="848" y="988" type="line"/>
      <point x="778" y="802"/>
      <point x="710" y="620"/>
      <point x="638" y="430" type="curve"/>
      <point x="500" y="70" type="line"/>
      <point x="488" y="70" type="line"/>
      <point x="350" y="430" type="line"/>
      <point x="278" y="620"/>
      <point x="212" y="800"/>
      <point x="140" y="992" type="curve"/>
      <point x="66" y="988" type="line"/>
      <point x="124" y="844"/>
      <point x="182" y="694"/>
      <point x="240" y="550" type="curve"/>
      <point x="308" y="374" type="line"/>
      <point x="354" y="254"/>
      <point x="402" y="124"/>
    </contour>
  </outline>
</glyph>
<glyph name="w" format="2">
  <advance width="1570"/>
  <unicode hex="0077"/>
  <anchor x="788" y="0" name="bottom"/>
  <anchor x="788" y="988" name="top"/>
  <outline>
    <contour>
      <point x="406" y="0" type="curve"/>
      <point x="494" y="0" type="line"/>
      <point x="552" y="182"/>
      <point x="614" y="380"/>
      <point x="668" y="550" type="curve"/>
      <point x="778" y="892" type="line"/>
      <point x="790" y="892" type="line"/>
      <point x="900" y="554" type="line"/>
      <point x="956" y="380"/>
      <point x="1022" y="180"/>
      <point x="1080" y="0" type="curve"/>
      <point x="1170" y="0" type="line"/>
      <point x="1210" y="122"/>
      <point x="1250" y="248"/>
      <point x="1292" y="378" type="curve"/>
      <point x="1350" y="552" type="line"/>
      <point x="1400" y="696"/>
      <point x="1452" y="842"/>
      <point x="1504" y="988" type="curve"/>
      <point x="1428" y="988" type="line"/>
      <point x="1374" y="822"/>
      <point x="1308" y="616"/>
      <point x="1248" y="432" type="curve"/>
      <point x="1130" y="72" type="line"/>
      <point x="1120" y="72" type="line"/>
      <point x="1002" y="430" type="line"/>
      <point x="942" y="618"/>
      <point x="880" y="808"/>
      <point x="822" y="988" type="curve"/>
      <point x="746" y="988" type="line"/>
      <point x="686" y="798"/>
      <point x="626" y="610"/>
      <point x="568" y="426" type="curve"/>
      <point x="454" y="72" type="line"/>
      <point x="444" y="72" type="line"/>
      <point x="328" y="416" type="line"/>
      <point x="268" y="600"/>
      <point x="200" y="808"/>
      <point x="140" y="992" type="curve"/>
      <point x="66" y="988" type="line"/>
      <point x="118" y="840"/>
      <point x="168" y="698"/>
      <point x="220" y="552" type="curve"/>
      <point x="280" y="376" type="line"/>
      <point x="322" y="250"/>
      <point x="364" y="124"/>
    </contour>
  </outline>
</glyph>
<glyph name="x" format="2">
  <advance width="1020"/>
  <unicode hex="0078"/>
  <outline>
    <contour>
      <point x="70" y="0" type="curve"/>
      <point x="158" y="0" type="line"/>
      <point x="230" y="98"/>
      <point x="282" y="170"/>
      <point x="354" y="268" type="curve"/>
      <point x="494" y="454" type="line"/>
      <point x="504" y="454" type="line"/>
      <point x="658" y="260" type="line"/>
      <point x="732" y="166"/>
      <point x="790" y="90"/>
      <point x="860" y="0" type="curve"/>
      <point x="950" y="0" type="line"/>
      <point x="846" y="126"/>
      <point x="782" y="204"/>
      <point x="706" y="296" type="curve"/>
      <point x="528" y="520" type="line"/>
      <point x="530" y="492" type="line"/>
      <point x="688" y="702" type="line"/>
      <point x="764" y="800"/>
      <point x="812" y="860"/>
      <point x="912" y="988" type="curve"/>
      <point x="822" y="988" type="line"/>
      <point x="750" y="890"/>
      <point x="698" y="818"/>
      <point x="632" y="728" type="curve"/>
      <point x="500" y="552" type="line"/>
      <point x="492" y="552" type="line"/>
      <point x="360" y="726" type="line"/>
      <point x="294" y="816"/>
      <point x="240" y="888"/>
      <point x="164" y="992" type="curve"/>
      <point x="78" y="988" type="line"/>
      <point x="176" y="864"/>
      <point x="232" y="792"/>
      <point x="310" y="694" type="curve"/>
      <point x="468" y="484" type="line"/>
      <point x="466" y="516" type="line"/>
      <point x="302" y="298" type="line"/>
      <point x="226" y="200"/>
      <point x="170" y="128"/>
    </contour>
  </outline>
</glyph>
<glyph name="y" format="2">
  <advance width="1000"/>
  <unicode hex="0079"/>
  <anchor x="700" y="0" name="bottom"/>
  <anchor x="500" y="988" name="top"/>
  <outline>
    <contour>
      <point x="300" y="-388" type="curve"/>
      <point x="378" y="-384" type="line"/>
      <point x="436" y="-240"/>
      <point x="500" y="-78"/>
      <point x="600" y="176" type="curve"/>
      <point x="712" y="454" type="line"/>
      <point x="816" y="704"/>
      <point x="866" y="826"/>
      <point x="934" y="988" type="curve"/>
      <point x="856" y="988" type="line"/>
      <point x="784" y="800"/>
      <point x="714" y="620"/>
      <point x="640" y="430" type="curve"/>
      <point x="494" y="70" type="line"/>
      <point x="482" y="70" type="line"/>
      <point x="348" y="428" type="line"/>
      <point x="278" y="620"/>
      <point x="210" y="800"/>
      <point x="140" y="992" type="curve"/>
      <point x="66" y="988" type="line"/>
      <point x="122" y="846"/>
      <point x="182" y="694"/>
      <point x="238" y="552" type="curve"/>
      <point x="306" y="372" type="line"/>
      <point x="356" y="240"/>
      <point x="410" y="98"/>
      <point x="458" y="-38" type="curve"/>
      <point x="462" y="-8" type="line"/>
      <point x="408" y="-132"/>
      <point x="354" y="-262"/>
    </contour>
  </outline>
</glyph>
<glyph name="bar" format="2">
  <advance width="500"/>
  <unicode hex="007C"/>
  <outline>
    <contour>
      <point x="216" y="-308" type="curve"/>
      <point x="284" y="-308" type="line"/>
      <point x="282" y="-32"/>
      <point x="280" y="274"/>
      <point x="280" y="350" type="curve"/>
      <point x="280" y="914" type="line"/>
      <point x="280" y="990"/>
      <point x="282" y="1296"/>
      <point x="284" y="1572" type="curve"/>
      <point x="216" y="1572" type="line"/>
      <point x="218" y="1296"/>
      <point x="220" y="990"/>
      <point x="220" y="914" type="curve"/>
      <point x="220" y="350" type="line"/>
      <point x="220" y="274"/>
      <point x="218" y="-32"/>
    </contour>
  </outline>
</glyph>
<glyph name="sterling" format="2">
  <advance width="1158"/>
  <unicode hex="00A3"/>
  <outline>
    <contour>
      <point x="150" y="0" type="line"/>
      <point x="1088" y="0" type="line"/>
      <point x="1088" y="66" type="line"/>
      <point x="928" y="64"/>
      <point x="666" y="62"/>
      <point x="488" y="60" type="curve"/>
      <point x="192" y="60" type="line"/>
      <point x="202" y="22" type="line"/>
      <point x="342" y="282"/>
      <point x="372" y="358"/>
      <point x="372" y="438" type="curve" smooth="yes"/>
      <point x="372" y="916" type="line" smooth="yes"/>
      <point x="372" y="1200"/>
      <point x="488" y="1326"/>
      <point x="726" y="1328" type="curve"/>
      <point x="762" y="1328"/>
      <point x="892" y="1292"/>
      <point x="1016" y="1246" type="curve"/>
      <point x="1026" y="1316" type="line"/>
      <point x="950" y="1342"/>
      <point x="786" y="1392"/>
      <point x="724" y="1392" type="curve" smooth="yes"/>
      <point x="474" y="1392"/>
      <point x="308" y="1244"/>
      <point x="308" y="924" type="curve" smooth="yes"/>
      <point x="308" y="762"/>
      <point x="310" y="602"/>
      <point x="310" y="440" type="curve"/>
      <point x="310" y="380"/>
      <point x="282" y="298"/>
      <point x="150" y="54" type="curve"/>
    </contour>
    <contour>
      <point x="132" y="734" type="line"/>
      <point x="248" y="736"/>
      <point x="382" y="738"/>
      <point x="452" y="738" type="curve"/>
      <point x="512" y="738" type="line"/>
      <point x="582" y="738"/>
      <point x="716" y="736"/>
      <point x="832" y="734" type="curve"/>
      <point x="832" y="798" type="line"/>
      <point x="716" y="796"/>
      <point x="582" y="794"/>
      <point x="512" y="794" type="curve"/>
      <point x="452" y="794" type="line"/>
      <point x="382" y="794"/>
      <point x="248" y="796"/>
      <point x="132" y="798" type="curve"/>
    </contour>
  </outline>
</glyph>
<glyph name="yen" format="2">
  <advance width="1206"/>
  <unicode hex="00A5"/>
  <outline>
    <contour>
      <point x="574" y="576" type="line"/>
      <point x="632" y="576" type="line"/>
      <point x="940" y="1056" type="line"/>
      <point x="1006" y="1156"/>
      <point x="1080" y="1268"/>
      <point x="1146" y="1368" type="curve"/>
      <point x="1062" y="1368" type="line"/>
      <point x="936" y="1168"/>
      <point x="872" y="1068"/>
      <point x="774" y="912" type="curve"/>
      <point x="608" y="652" type="line"/>
      <point x="596" y="652" type="line"/>
      <point x="432" y="910" type="line"/>
      <point x="332" y="1070"/>
      <point x="272" y="1166"/>
      <point x="144" y="1368" type="curve"/>
      <point x="60" y="1368" type="line"/>
      <point x="162" y="1212"/>
      <point x="206" y="1146"/>
      <point x="266" y="1056" type="curve"/>
    </contour>
    <contour>
      <point x="568" y="0" type="curve"/>
      <point x="640" y="0" type="line"/>
      <point x="638" y="156"/>
      <point x="636" y="290"/>
      <point x="634" y="456" type="curve"/>
      <point x="634" y="626" type="line"/>
      <point x="572" y="626" type="line"/>
      <point x="572" y="456" type="line"/>
      <point x="570" y="290"/>
      <point x="570" y="156"/>
    </contour>
    <contour>
      <point x="174" y="312" type="line"/>
      <point x="290" y="314"/>
      <point x="424" y="316"/>
      <point x="494" y="316" type="curve"/>
      <point x="714" y="316" type="line"/>
      <point x="784" y="316"/>
      <point x="918" y="314"/>
      <point x="1034" y="312" type="curve"/>
      <point x="1034" y="376" type="line"/>
      <point x="918" y="374"/>
      <point x="784" y="372"/>
      <point x="714" y="372" type="curve"/>
      <point x="494" y="372" type="line"/>
      <point x="424" y="372"/>
      <point x="290" y="374"/>
      <point x="174" y="376" type="curve"/>
    </contour>
    <contour>
      <point x="174" y="572" type="line"/>
      <point x="290" y="574"/>
      <point x="424" y="576"/>
      <point x="494" y="576" type="curve"/>
      <point x="714" y="576" type="line"/>
      <point x="784" y="576"/>
      <point x="918" y="574"/>
      <point x="1034" y="572" type="curve"/>
      <point x="1034" y="636" type="line"/>
      <point x="918" y="634"/>
      <point x="784" y="632"/>
      <point x="714" y="632" type="curve"/>
      <point x="494" y="632" type="line"/>
      <point x="424" y="632"/>
      <point x="290" y="634"/>
      <point x="174" y="636" type="curve"/>
    </contour>
  </outline>
</glyph>
<glyph name="ordfeminine" format="2">
  <advance width="776"/>
  <unicode hex="00AA"/>
  <outline>
    <contour>
      <point x="318" y="670" type="curve" smooth="yes"/>
      <point x="394" y="670"/>
      <point x="502" y="738"/>
      <point x="592" y="808" type="curve"/>
      <point x="602" y="808" type="line"/>
      <point x="632" y="684" type="line"/>
      <point x="694" y="684" type="line"/>
      <point x="676" y="754"/>
      <point x="660" y="818"/>
      <point x="646" y="872" type="curve"/>
      <point x="646" y="1004" type="line" smooth="yes"/>
      <point x="646" y="1074"/>
      <point x="650" y="1148"/>
      <point x="650" y="1192" type="curve" smooth="yes"/>
      <point x="650" y="1374"/>
      <point x="550" y="1450"/>
      <point x="398" y="1450" type="curve" smooth="yes"/>
      <point x="344" y="1450"/>
      <point x="194" y="1414"/>
      <point x="124" y="1394" type="curve"/>
      <point x="128" y="1328" type="line"/>
      <point x="246" y="1364"/>
      <point x="364" y="1390"/>
      <point x="394" y="1390" type="curve" smooth="yes"/>
      <point x="502" y="1390"/>
      <point x="598" y="1360"/>
      <point x="590" y="1166" type="curve"/>
      <point x="330" y="1112" type="line" smooth="yes"/>
      <point x="234" y="1092"/>
      <point x="90" y="1040"/>
      <point x="90" y="876" type="curve" smooth="yes"/>
      <point x="90" y="754"/>
      <point x="174" y="670"/>
    </contour>
    <contour>
      <point x="326" y="730" type="curve" smooth="yes"/>
      <point x="222" y="730"/>
      <point x="150" y="772"/>
      <point x="150" y="882" type="curve" smooth="yes"/>
      <point x="150" y="1000"/>
      <point x="250" y="1040"/>
      <point x="354" y="1060" type="curve" smooth="yes"/>
      <point x="518" y="1092"/>
      <point x="560" y="1108"/>
      <point x="590" y="1120" type="curve"/>
      <point x="588" y="874" type="line"/>
      <point x="502" y="792"/>
      <point x="388" y="730"/>
    </contour>
  </outline>
</glyph>
<glyph name="multiply" format="2">
  <advance width="1108"/>
  <unicode hex="00D7"/>
  <outline>
    <contour>
      <point x="912" y="184" type="curve"/>
      <point x="960" y="232" type="line"/>
      <point x="876" y="312"/>
      <point x="780" y="406"/>
      <point x="730" y="456" type="curve"/>
      <point x="420" y="766" type="line"/>
      <point x="370" y="816"/>
      <point x="276" y="912"/>
      <point x="196" y="996" type="curve"/>
      <point x="148" y="948" type="line"/>
      <point x="232" y="868"/>
      <point x="328" y="774"/>
      <point x="378" y="724" type="curve"/>
      <point x="688" y="414" type="line"/>
      <point x="738" y="364"/>
      <point x="832" y="268"/>
    </contour>
    <contour>
      <point x="196" y="184" type="line"/>
      <point x="276" y="268"/>
      <point x="370" y="364"/>
      <point x="420" y="414" type="curve"/>
      <point x="730" y="724" type="line"/>
      <point x="780" y="774"/>
      <point x="876" y="868"/>
      <point x="960" y="948" type="curve"/>
      <point x="912" y="996" type="line"/>
      <point x="832" y="912"/>
      <point x="738" y="816"/>
      <point x="688" y="766" type="curve"/>
      <point x="378" y="456" type="line"/>
      <point x="328" y="406"/>
      <point x="232" y="312"/>
      <point x="148" y="232" type="curve"/>
    </contour>
  </outline>
</glyph>
<glyph name="Thorn" format="2">
  <advance width="1220"/>
  <unicode hex="00DE"/>
  <outline>
    <contour>
      <point x="216" y="0" type="curve"/>
      <point x="290" y="0" type="line"/>
      <point x="288" y="162"/>
      <point x="286" y="302"/>
      <point x="284" y="476" type="curve"/>
      <point x="284" y="950" type="line"/>
      <point x="286" y="1124"/>
      <point x="288" y="1264"/>
      <point x="290" y="1426" type="curve"/>
      <point x="216" y="1426" type="line"/>
      <point x="218" y="1264"/>
      <point x="218" y="1124"/>
      <point x="220" y="950" type="curve"/>
      <point x="220" y="476" type="line"/>
      <point x="218" y="302"/>
      <point x="218" y="162"/>
    </contour>
    <contour>
      <point x="592" y="338" type="curve"/>
      <point x="1002" y="338"/>
      <point x="1120" y="524"/>
      <point x="1120" y="768" type="curve" smooth="yes"/>
      <point x="1120" y="1012"/>
      <point x="980" y="1146"/>
      <point x="672" y="1146" type="curve"/>
      <point x="498" y="1146"/>
      <point x="360" y="1144"/>
      <point x="274" y="1144" type="curve"/>
      <point x="274" y="1082" type="line"/>
      <point x="668" y="1082" type="line" smooth="yes"/>
      <point x="830" y="1082"/>
      <point x="1054" y="1064"/>
      <point x="1054" y="768" type="curve" smooth="yes"/>
      <point x="1054" y="504"/>
      <point x="912" y="400"/>
      <point x="590" y="400" type="curve" smooth="yes"/>
      <point x="274" y="400" type="line"/>
      <point x="274" y="340" type="line"/>
      <point x="354" y="340"/>
      <point x="490" y="338"/>
    </contour>
  </outline>
</glyph>
<glyph name="ae" format="2">
  <advance width="1646"/>
  <unicode hex="00E6"/>
  <anchor x="804" y="0" name="bottom"/>
  <anchor x="804" y="988" name="top"/>
  <outline>
    <contour>
      <point x="1236" y="-18" type="curve" smooth="yes"/>
      <point x="1306" y="-18"/>
      <point x="1452" y="20"/>
      <point x="1544" y="52" type="curve"/>
      <point x="1538" y="126" type="line"/>
      <point x="1430" y="80"/>
      <point x="1286" y="46"/>
      <point x="1236" y="46" type="curve" smooth="yes"/>
      <point x="942" y="46"/>
      <point x="824" y="222"/>
      <point x="824" y="498" type="curve"/>
      <point x="824" y="502" type="line"/>
      <point x="824" y="758"/>
      <point x="940" y="938"/>
      <point x="1184" y="944" type="curve"/>
      <point x="1376" y="938"/>
      <point x="1504" y="832"/>
      <point x="1504" y="590" type="curve" smooth="yes"/>
      <point x="1504" y="570"/>
      <point x="1504" y="550"/>
      <point x="1502" y="528" type="curve"/>
      <point x="1556" y="474" type="line"/>
      <point x="1562" y="512"/>
      <point x="1564" y="548"/>
      <point x="1564" y="594" type="curve" smooth="yes"/>
      <point x="1564" y="854"/>
      <point x="1416" y="1008"/>
      <point x="1182" y="1008" type="curve" smooth="yes"/>
      <point x="920" y="1008"/>
      <point x="764" y="796"/>
      <point x="764" y="502" type="curve" smooth="yes"/>
      <point x="764" y="202"/>
      <point x="904" y="-18"/>
    </contour>
    <contour>
      <point x="404" y="44" type="curve" smooth="yes"/>
      <point x="264" y="44"/>
      <point x="164" y="104"/>
      <point x="164" y="256" type="curve" smooth="yes"/>
      <point x="164" y="410"/>
      <point x="292" y="468"/>
      <point x="442" y="496" type="curve" smooth="yes"/>
      <point x="668" y="538"/>
      <point x="726" y="560"/>
      <point x="764" y="578" type="curve"/>
      <point x="762" y="286" type="line"/>
      <point x="616" y="130"/>
      <point x="488" y="44"/>
    </contour>
    <contour>
      <point x="404" y="-18" type="curve" smooth="yes"/>
      <point x="506" y="-18"/>
      <point x="662" y="82"/>
      <point x="830" y="270" type="curve"/>
      <point x="800" y="500" type="line"/>
      <point x="826" y="668" type="line"/>
      <point x="826" y="906"/>
      <point x="700" y="1008"/>
      <point x="502" y="1008" type="curve" smooth="yes"/>
      <point x="428" y="1008"/>
      <point x="234" y="958"/>
      <point x="146" y="934" type="curve"/>
      <point x="152" y="862" type="line"/>
      <point x="302" y="908"/>
      <point x="458" y="944"/>
      <point x="502" y="944" type="curve" smooth="yes"/>
      <point x="650" y="944"/>
      <point x="774" y="900"/>
      <point x="764" y="624" type="curve"/>
      <point x="418" y="552" type="line" smooth="yes"/>
      <point x="280" y="524"/>
      <point x="102" y="462"/>
      <point x="102" y="254" type="curve" smooth="yes"/>
      <point x="102" y="92"/>
      <point x="212" y="-18"/>
    </contour>
    <contour>
      <point x="794" y="474" type="line"/>
      <point x="1556" y="474" type="line"/>
      <point x="1556" y="536" type="line"/>
      <point x="1512" y="534" type="line"/>
      <point x="794" y="534" type="line"/>
    </contour>
  </outline>
</glyph>
<glyph name="eth" format="2">
  <advance width="1176"/>
  <unicode hex="00F0"/>
  <outline>
    <contour>
      <point x="592" y="-18" type="curve" smooth="yes"/>
      <point x="888" y="-18"/>
      <point x="1052" y="218"/>
      <point x="1052" y="604" type="curve" smooth="yes"/>
      <point x="1052" y="898"/>
      <point x="952" y="1110"/>
      <point x="788" y="1290" type="curve"/>
      <point x="706" y="1366"/>
      <point x="626" y="1434"/>
      <point x="546" y="1500" type="curve"/>
      <point x="478" y="1458" type="line"/>
      <point x="564" y="1392"/>
      <point x="644" y="1330"/>
      <point x="722" y="1270" type="curve"/>
      <point x="898" y="1090"/>
      <point x="990" y="872"/>
      <point x="990" y="602" type="curve" smooth="yes"/>
      <point x="990" y="256"/>
      <point x="862" y="52"/>
      <point x="592" y="46" type="curve"/>
      <point x="318" y="52"/>
      <point x="186" y="264"/>
      <point x="186" y="488" type="curve" smooth="yes"/>
      <point x="186" y="710"/>
      <point x="314" y="904"/>
      <point x="584" y="910" type="curve"/>
      <point x="652" y="910"/>
      <point x="828" y="858"/>
      <point x="998" y="720" type="curve"/>
      <point x="998" y="740"/>
      <point x="1000" y="782"/>
      <point x="1000" y="826" type="curve"/>
      <point x="956" y="824" type="line"/>
      <point x="830" y="910"/>
      <point x="670" y="974"/>
      <point x="584" y="974" type="curve" smooth="yes"/>
      <point x="306" y="974"/>
      <point x="124" y="760"/>
      <point x="124" y="488" type="curve" smooth="yes"/>
      <point x="124" y="222"/>
      <point x="300" y="-18"/>
    </contour>
    <contour>
      <point x="370" y="1146" type="line"/>
      <point x="482" y="1180"/>
      <point x="586" y="1210"/>
      <point x="670" y="1236" type="curve"/>
      <point x="760" y="1262" type="line"/>
      <point x="846" y="1286"/>
      <point x="950" y="1314"/>
      <point x="1062" y="1344" type="curve"/>
      <point x="1046" y="1406" type="line"/>
      <point x="932" y="1372"/>
      <point x="828" y="1342"/>
      <point x="744" y="1316" type="curve"/>
      <point x="654" y="1290" type="line"/>
      <point x="572" y="1268"/>
      <point x="464" y="1238"/>
      <point x="352" y="1208" type="curve"/>
    </contour>
  </outline>
</glyph>
<glyph name="oslash" format="2">
  <advance width="1194"/>
  <unicode hex="00F8"/>
  <anchor x="596" y="988" name="top"/>
  <outline>
    <contour>
      <point x="600" y="-18" type="curve" smooth="yes"/>
      <point x="880" y="-18"/>
      <point x="1070" y="212"/>
      <point x="1070" y="502" type="curve" smooth="yes"/>
      <point x="1070" y="790"/>
      <point x="888" y="1008"/>
      <point x="600" y="1008" type="curve" smooth="yes"/>
      <point x="320" y="1008"/>
      <point x="124" y="798"/>
      <point x="124" y="502" type="curve" smooth="yes"/>
      <point x="124" y="226"/>
      <point x="300" y="-18"/>
    </contour>
    <contour>
      <point x="600" y="46" type="curve"/>
      <point x="316" y="52"/>
      <point x="186" y="268"/>
      <point x="186" y="502" type="curve" smooth="yes"/>
      <point x="186" y="748"/>
      <point x="324" y="938"/>
      <point x="600" y="944" type="curve"/>
      <point x="858" y="938"/>
      <point x="1008" y="764"/>
      <point x="1008" y="502" type="curve" smooth="yes"/>
      <point x="1008" y="268"/>
      <point x="882" y="52"/>
    </contour>
    <contour>
      <point x="186" y="-116" type="line"/>
      <point x="284" y="16"/>
      <point x="366" y="124"/>
      <point x="472" y="266" type="curve"/>
      <point x="758" y="640" type="line"/>
      <point x="866" y="778"/>
      <point x="960" y="898"/>
      <point x="1058" y="1022" type="curve"/>
      <point x="1002" y="1062" type="line"/>
      <point x="906" y="934"/>
      <point x="822" y="822"/>
      <point x="714" y="678" type="curve"/>
      <point x="426" y="302" type="line"/>
      <point x="320" y="166"/>
      <point x="234" y="56"/>
      <point x="132" y="-74" type="curve"/>
    </contour>
  </outline>
</glyph>
<glyph name="dcroat" format="2">
  <advance width="1144"/>
  <unicode hex="0111"/>
  <outline>
    <contour>
      <point x="514" y="1220" type="line"/>
      <point x="624" y="1222"/>
      <point x="708" y="1222"/>
      <point x="812" y="1224" type="curve"/>
      <point x="896" y="1224" type="line"/>
      <point x="1000" y="1222"/>
      <point x="1084" y="1222"/>
      <point x="1194" y="1220" type="curve"/>
      <point x="1194" y="1280" type="line"/>
      <point x="1084" y="1280"/>
      <point x="1000" y="1280"/>
      <point x="896" y="1280" type="curve"/>
      <point x="812" y="1280" type="line"/>
      <point x="708" y="1282"/>
      <point x="624" y="1282"/>
      <point x="514" y="1284" type="curve"/>
    </contour>
    <contour>
      <point x="566" y="-18" type="curve" smooth="yes"/>
      <point x="662" y="-18"/>
      <point x="802" y="58"/>
      <point x="902" y="142" type="curve"/>
      <point x="914" y="142" type="line"/>
      <point x="918" y="0" type="line"/>
      <point x="978" y="0" type="line"/>
      <point x="976" y="150"/>
      <point x="974" y="280"/>
      <point x="972" y="442" type="curve"/>
      <point x="972" y="988" type="line"/>
      <point x="974" y="1158"/>
      <point x="976" y="1316"/>
      <point x="978" y="1480" type="curve"/>
      <point x="900" y="1458" type="line"/>
      <point x="904" y="1314"/>
      <point x="908" y="1158"/>
      <point x="912" y="988" type="curve"/>
      <point x="912" y="860" type="line"/>
      <point x="900" y="860" type="line"/>
      <point x="806" y="928"/>
      <point x="690" y="1008"/>
      <point x="570" y="1008" type="curve" smooth="yes"/>
      <point x="292" y="1008"/>
      <point x="124" y="792"/>
      <point x="124" y="498" type="curve" smooth="yes"/>
      <point x="124" y="220"/>
      <point x="274" y="-18"/>
    </contour>
    <contour>
      <point x="566" y="46" type="curve"/>
      <point x="298" y="52"/>
      <point x="186" y="262"/>
      <point x="186" y="498" type="curve" smooth="yes"/>
      <point x="186" y="744"/>
      <point x="308" y="938"/>
      <point x="570" y="944" type="curve"/>
      <point x="656" y="942"/>
      <point x="794" y="882"/>
      <point x="912" y="768" type="curve"/>
      <point x="912" y="232" type="line"/>
      <point x="814" y="138"/>
      <point x="676" y="50"/>
    </contour>
  </outline>
</glyph>
<glyph name="hbar" format="2">
  <advance width="1136"/>
  <unicode hex="0127"/>
  <outline>
    <contour>
      <point x="-12" y="1220" type="line"/>
      <point x="98" y="1222"/>
      <point x="182" y="1222"/>
      <point x="286" y="1224" type="curve"/>
      <point x="370" y="1224" type="line"/>
      <point x="474" y="1222"/>
      <point x="558" y="1222"/>
      <point x="668" y="1220" type="curve"/>
      <point x="668" y="1284" type="line"/>
      <point x="558" y="1282"/>
      <point x="474" y="1282"/>
      <point x="370" y="1280" type="curve"/>
      <point x="286" y="1280" type="line"/>
      <point x="182" y="1280"/>
      <point x="98" y="1280"/>
      <point x="-12" y="1280" type="curve"/>
    </contour>
    <contour>
      <point x="204" y="0" type="curve"/>
      <point x="274" y="0" type="line"/>
      <point x="272" y="150"/>
      <point x="270" y="280"/>
      <point x="268" y="442" type="curve"/>
      <point x="268" y="702" type="line"/>
      <point x="404" y="842"/>
      <point x="564" y="944"/>
      <point x="650" y="944" type="curve" smooth="yes"/>
      <point x="836" y="944"/>
      <point x="896" y="844"/>
      <point x="896" y="652" type="curve"/>
      <point x="896" y="442" type="line"/>
      <point x="894" y="280"/>
      <point x="894" y="150"/>
      <point x="892" y="0" type="curve"/>
      <point x="962" y="0" type="line"/>
      <point x="960" y="150"/>
      <point x="958" y="280"/>
      <point x="956" y="442" type="curve"/>
      <point x="956" y="494"/>
      <point x="958" y="566"/>
      <point x="958" y="652" type="curve" smooth="yes"/>
      <point x="958" y="880"/>
      <point x="874" y="1008"/>
      <point x="652" y="1008" type="curve" smooth="yes"/>
      <point x="532" y="1008"/>
      <point x="362" y="874"/>
      <point x="280" y="798" type="curve"/>
      <point x="268" y="798" type="line"/>
      <point x="268" y="988" type="line"/>
      <point x="270" y="1158"/>
      <point x="272" y="1316"/>
      <point x="274" y="1480" type="curve"/>
      <point x="196" y="1458" type="line"/>
      <point x="200" y="1314"/>
      <point x="204" y="1158"/>
      <point x="208" y="988" type="curve"/>
      <point x="208" y="442" type="line"/>
      <point x="206" y="280"/>
      <point x="206" y="150"/>
    </contour>
  </outline>
</glyph>
<glyph name="kgreenlandic" format="2">
  <advance width="1016"/>
  <unicode hex="0138"/>
  <outline>
    <contour>
      <point x="858" y="0" type="curve"/>
      <point x="968" y="0" type="line"/>
      <point x="826" y="114"/>
      <point x="688" y="226"/>
      <point x="546" y="340" type="curve"/>
      <point x="326" y="518" type="line"/>
      <point x="326" y="480" type="line"/>
      <point x="520" y="646" type="line"/>
      <point x="658" y="760"/>
      <point x="788" y="872"/>
      <point x="928" y="988" type="curve"/>
      <point x="822" y="988" type="line"/>
      <point x="710" y="890"/>
      <point x="596" y="790"/>
      <point x="484" y="692" type="curve"/>
      <point x="298" y="532" type="line"/>
      <point x="238" y="532" type="line"/>
      <point x="238" y="476" type="line"/>
      <point x="284" y="476" type="line"/>
      <point x="510" y="294" type="line"/>
      <point x="626" y="196"/>
      <point x="742" y="98"/>
    </contour>
    <contour>
      <point x="188" y="0" type="curve"/>
      <point x="258" y="0" type="line"/>
      <point x="256" y="150"/>
      <point x="254" y="280"/>
      <point x="252" y="442" type="curve"/>
      <point x="252" y="542" type="line"/>
      <point x="252" y="704"/>
      <point x="252" y="842"/>
      <point x="258" y="992" type="curve"/>
      <point x="186" y="988" type="line"/>
      <point x="192" y="838"/>
      <point x="192" y="704"/>
      <point x="192" y="542" type="curve"/>
      <point x="192" y="442" type="line"/>
      <point x="190" y="280"/>
      <point x="190" y="150"/>
    </contour>
  </outline>
</glyph>
<glyph name="Eng" format="2">
  <advance width="1516"/>
  <unicode hex="014A"/>
  <outline>
    <contour>
      <point x="1038" y="-384" type="curve"/>
      <point x="1118" y="-384" type="line"/>
      <point x="1170" y="-280"/>
      <point x="1296" y="-26"/>
      <point x="1296" y="6" type="curve" smooth="yes"/>
      <point x="1296" y="160"/>
      <point x="1294" y="320"/>
      <point x="1294" y="474" type="curve"/>
      <point x="1294" y="950" type="line"/>
      <point x="1296" y="1124"/>
      <point x="1298" y="1264"/>
      <point x="1300" y="1426" type="curve"/>
      <point x="1226" y="1426" type="line"/>
      <point x="1228" y="1264"/>
      <point x="1228" y="1124"/>
      <point x="1230" y="950" type="curve"/>
      <point x="1230" y="124" type="line"/>
      <point x="1222" y="124" type="line"/>
      <point x="852" y="638" type="line"/>
      <point x="672" y="892"/>
      <point x="488" y="1150"/>
      <point x="292" y="1426" type="curve"/>
      <point x="216" y="1426" type="line"/>
      <point x="218" y="1264"/>
      <point x="218" y="1124"/>
      <point x="220" y="950" type="curve"/>
      <point x="220" y="476" type="line"/>
      <point x="218" y="302"/>
      <point x="218" y="162"/>
      <point x="216" y="0" type="curve"/>
      <point x="290" y="0" type="line"/>
      <point x="288" y="162"/>
      <point x="286" y="302"/>
      <point x="284" y="476" type="curve"/>
      <point x="284" y="1310" type="line"/>
      <point x="292" y="1310" type="line"/>
      <point x="662" y="792" type="line"/>
      <point x="882" y="482"/>
      <point x="1060" y="232"/>
      <point x="1226" y="0" type="curve"/>
      <point x="1260" y="0" type="line"/>
      <point x="1226" y="62" type="line"/>
      <point x="1226" y="-6" type="line"/>
      <point x="1158" y="-144"/>
      <point x="1098" y="-262"/>
    </contour>
  </outline>
</glyph>
<glyph name="eng" format="2">
  <advance width="1144"/>
  <unicode hex="014B"/>
  <outline>
    <contour>
      <point x="738" y="-388" type="curve"/>
      <point x="820" y="-384" type="line"/>
      <point x="858" y="-296"/>
      <point x="970" y="-8"/>
      <point x="970" y="26" type="curve" smooth="yes"/>
      <point x="970" y="148"/>
      <point x="970" y="274"/>
      <point x="970" y="542" type="curve"/>
      <point x="970" y="570"/>
      <point x="970" y="606"/>
      <point x="970" y="652" type="curve" smooth="yes"/>
      <point x="970" y="880"/>
      <point x="886" y="1008"/>
      <point x="664" y="1008" type="curve" smooth="yes"/>
      <point x="544" y="1008"/>
      <point x="374" y="874"/>
      <point x="292" y="798" type="curve"/>
      <point x="280" y="798" type="line"/>
      <point x="268" y="994" type="line"/>
      <point x="202" y="988" type="line"/>
      <point x="208" y="886"/>
      <point x="216" y="780"/>
      <point x="220" y="684" type="curve"/>
      <point x="220" y="442" type="line"/>
      <point x="218" y="280"/>
      <point x="218" y="150"/>
      <point x="216" y="0" type="curve"/>
      <point x="286" y="0" type="line"/>
      <point x="284" y="150"/>
      <point x="282" y="280"/>
      <point x="280" y="442" type="curve"/>
      <point x="280" y="702" type="line"/>
      <point x="416" y="842"/>
      <point x="576" y="944"/>
      <point x="662" y="944" type="curve" smooth="yes"/>
      <point x="848" y="944"/>
      <point x="908" y="844"/>
      <point x="908" y="652" type="curve"/>
      <point x="908" y="442" type="line"/>
      <point x="902" y="4" type="line"/>
      <point x="834" y="-166"/>
      <point x="792" y="-266"/>
    </contour>
  </outline>
</glyph>
<glyph name="ringhalfright" format="2">
  <advance width="388"/>
  <unicode hex="02BE"/>
  <outline>
    <contour>
      <point x="70" y="1144" type="line"/>
      <point x="186" y="1144"/>
      <point x="268" y="1214"/>
      <point x="268" y="1330" type="curve" smooth="yes"/>
      <point x="268" y="1440"/>
      <point x="186" y="1516"/>
      <point x="72" y="1516" type="curve"/>
      <point x="72" y="1460" type="line"/>
      <point x="150" y="1458"/>
      <point x="210" y="1412"/>
      <point x="210" y="1330" type="curve" smooth="yes"/>
      <point x="210" y="1242"/>
      <point x="150" y="1202"/>
      <point x="70" y="1200" type="curve"/>
    </contour>
  </outline>
</glyph>
<glyph name="verticallinemod" format="2">
  <advance width="380"/>
  <unicode hex="02C8"/>
  <outline>
    <contour>
      <point x="220" y="1068" type="curve"/>
      <point x="160" y="1068" type="line"/>
      <point x="158" y="1232"/>
      <point x="156" y="1394"/>
      <point x="154" y="1558" type="curve"/>
      <point x="226" y="1558" type="line"/>
      <point x="224" y="1394"/>
      <point x="222" y="1232"/>
    </contour>
  </outline>
</glyph>
<glyph name="hungarumlautcomb" format="2">
  <unicode hex="030B"/>
  <anchor x="600" y="988" name="_top"/>
  <anchor x="598" y="1472" name="top"/>
  <outline>
    <contour>
      <point x="688" y="1172" type="curve"/>
      <point x="754" y="1174" type="line"/>
      <point x="860" y="1302"/>
      <point x="964" y="1428"/>
      <point x="1064" y="1558" type="curve"/>
      <point x="972" y="1556" type="line"/>
      <point x="878" y="1430"/>
      <point x="784" y="1300"/>
    </contour>
    <contour>
      <point x="360" y="1172" type="curve"/>
      <point x="422" y="1174" type="line"/>
      <point x="516" y="1302"/>
      <point x="606" y="1428"/>
      <point x="692" y="1558" type="curve"/>
      <point x="604" y="1556" type="line"/>
      <point x="524" y="1428"/>
      <point x="444" y="1300"/>
    </contour>
  </outline>
</glyph>
<glyph name="dieresisbelowcomb" format="2">
  <unicode hex="0324"/>
  <anchor x="600" y="0" name="_bottom"/>
  <outline>
    <contour>
      <point x="796" y="-396" type="curve" smooth="yes"/>
      <point x="848" y="-396"/>
      <point x="868" y="-366"/>
      <point x="868" y="-302" type="curve" smooth="yes"/>
      <point x="868" y="-250"/>
      <point x="848" y="-230"/>
      <point x="798" y="-230" type="curve" smooth="yes"/>
      <point x="746" y="-230"/>
      <point x="726" y="-248"/>
      <point x="726" y="-296" type="curve" smooth="yes"/>
      <point x="726" y="-366"/>
      <point x="746" y="-396"/>
    </contour>
    <contour>
      <point x="396" y="-396" type="curve" smooth="yes"/>
      <point x="448" y="-396"/>
      <point x="468" y="-366"/>
      <point x="468" y="-302" type="curve" smooth="yes"/>
      <point x="468" y="-250"/>
      <point x="448" y="-230"/>
      <point x="398" y="-230" type="curve" smooth="yes"/>
      <point x="346" y="-230"/>
      <point x="326" y="-248"/>
      <point x="326" y="-296" type="curve" smooth="yes"/>
      <point x="326" y="-366"/>
      <point x="346" y="-396"/>
    </contour>
  </outline>
</glyph>
<glyph name="commaaccentcomb" format="2">
  <unicode hex="0326"/>
  <anchor x="600" y="0" name="_bottom"/>
  <anchor x="600" y="-546" name="bottom"/>
  <outline>
    <contour>
      <point x="522" y="-564" type="curve"/>
      <point x="562" y="-562" type="line"/>
      <point x="598" y="-496"/>
      <point x="670" y="-354"/>
      <point x="670" y="-312" type="curve" smooth="yes"/>
      <point x="670" y="-266"/>
      <point x="650" y="-232"/>
      <point x="606" y="-230" type="curve"/>
      <point x="566" y="-232" type="line"/>
      <point x="568" y="-264"/>
      <point x="570" y="-298"/>
      <point x="572" y="-330" type="curve"/>
      <point x="554" y="-422"/>
      <point x="540" y="-490"/>
    </contour>
  </outline>
</glyph>
<glyph name="ogonekcomb" format="2">
  <unicode hex="0328"/>
  <anchor x="598" y="0" name="_ogonek"/>
  <outline>
    <contour>
      <point x="502" y="-400" type="curve" smooth="yes"/>
      <point x="516" y="-400"/>
      <point x="562" y="-394"/>
      <point x="606" y="-388" type="curve"/>
      <point x="606" y="-328" type="line"/>
      <point x="584" y="-332"/>
      <point x="540" y="-338"/>
      <point x="502" y="-342" type="curve"/>
      <point x="432" y="-340"/>
      <point x="386" y="-312"/>
      <point x="386" y="-246" type="curve" smooth="yes"/>
      <point x="386" y="-160"/>
      <point x="484" y="-62"/>
      <point x="598" y="0" type="curve"/>
      <point x="576" y="40" type="line"/>
      <point x="544" y="40" type="line"/>
      <point x="544" y="20" type="line"/>
      <point x="390" y="-74"/>
      <point x="324" y="-164"/>
      <point x="324" y="-252" type="curve" smooth="yes"/>
      <point x="324" y="-344"/>
      <point x="396" y="-400"/>
    </contour>
  </outline>
</glyph>
<glyph name="strokelongcomb" format="2">
  <unicode hex="0336"/>
  <anchor x="610" y="714" name="_center"/>
  <outline>
    <contour>
      <point x="-80" y="1060" type="line"/>
      <point x="52" y="1062"/>
      <point x="176" y="1062"/>
      <point x="284" y="1064" type="curve"/>
      <point x="936" y="1064" type="line"/>
      <point x="1044" y="1062"/>
      <point x="1168" y="1062"/>
      <point x="1300" y="1060" type="curve"/>
      <point x="1300" y="1128" type="line"/>
      <point x="1168" y="1126"/>
      <point x="1044" y="1126"/>
      <point x="936" y="1124" type="curve"/>
      <point x="284" y="1124" type="line"/>
      <point x="176" y="1126"/>
      <point x="52" y="1126"/>
      <point x="-80" y="1128" type="curve"/>
    </contour>
  </outline>
</glyph>
<glyph name="slashshortcomb" format="2">
  <unicode hex="0337"/>
  <anchor x="596" y="488" name="_center"/>
  <outline>
    <contour>
      <point x="186" y="-122" type="line"/>
      <point x="284" y="10"/>
      <point x="366" y="118"/>
      <point x="472" y="260" type="curve"/>
      <point x="758" y="634" type="line"/>
      <point x="866" y="772"/>
      <point x="960" y="892"/>
      <point x="1058" y="1016" type="curve"/>
      <point x="1002" y="1056" type="line"/>
      <point x="906" y="928"/>
      <point x="822" y="816"/>
      <point x="714" y="672" type="curve"/>
      <point x="426" y="296" type="line"/>
      <point x="320" y="160"/>
      <point x="234" y="50"/>
      <point x="132" y="-80" type="curve"/>
    </contour>
  </outline>
</glyph>
<glyph name="slashlongcomb" format="2">
  <unicode hex="0338"/>
  <anchor x="612" y="714" name="_center"/>
  <outline>
    <contour>
      <point x="40" y="-114" type="line"/>
      <point x="172" y="58"/>
      <point x="294" y="218"/>
      <point x="438" y="406" type="curve"/>
      <point x="832" y="926" type="line"/>
      <point x="978" y="1114"/>
      <point x="1100" y="1270"/>
      <point x="1236" y="1446" type="curve"/>
      <point x="1178" y="1490" type="line"/>
      <point x="1046" y="1314"/>
      <point x="926" y="1154"/>
      <point x="780" y="960" type="curve"/>
      <point x="390" y="446" type="line"/>
      <point x="242" y="258"/>
      <point x="128" y="112"/>
      <point x="-14" y="-68" type="curve"/>
    </contour>
  </outline>
</glyph>
<glyph name="pi" format="2">
  <advance width="1164"/>
  <unicode hex="03C0"/>
  <outline>
    <contour>
      <point x="948" y="0" type="curve"/>
      <point x="1022" y="0" type="line"/>
      <point x="978" y="130"/>
      <point x="936" y="254"/>
      <point x="896" y="372" type="curve"/>
      <point x="896" y="988" type="line"/>
      <point x="838" y="988" type="line"/>
      <point x="838" y="756"/>
      <point x="834" y="656"/>
      <point x="834" y="380" type="curve"/>
      <point x="834" y="350"/>
      <point x="900" y="148"/>
    </contour>
    <contour>
      <point x="266" y="0" type="curve"/>
      <point x="336" y="0" type="line"/>
      <point x="336" y="148"/>
      <point x="336" y="282"/>
      <point x="338" y="446" type="curve"/>
      <point x="338" y="574" type="line"/>
      <point x="342" y="708"/>
      <point x="346" y="832"/>
      <point x="352" y="988" type="curve"/>
      <point x="284" y="988" type="line"/>
      <point x="282" y="840"/>
      <point x="280" y="704"/>
      <point x="278" y="542" type="curve"/>
      <point x="278" y="446" type="line"/>
      <point x="274" y="284"/>
      <point x="270" y="150"/>
    </contour>
    <contour>
      <point x="58" y="926" type="line"/>
      <point x="302" y="932" type="line"/>
      <point x="676" y="932" type="line"/>
      <point x="812" y="932"/>
      <point x="958" y="932"/>
      <point x="1098" y="926" type="curve"/>
      <point x="1098" y="988" type="line"/>
      <point x="58" y="988" type="line"/>
    </contour>
  </outline>
</glyph>
<glyph name="Germandbls" format="2">
  <advance width="1412"/>
  <unicode hex="1E9E"/>
  <outline>
    <contour>
      <point x="844" y="-16" type="curve" smooth="yes"/>
      <point x="1176" y="-16"/>
      <point x="1314" y="162"/>
      <point x="1314" y="372" type="curve" smooth="yes"/>
      <point x="1314" y="586"/>
      <point x="1162" y="742"/>
      <point x="736" y="794" type="curve"/>
      <point x="746" y="772" type="line"/>
      <point x="958" y="982" type="line"/>
      <point x="1042" y="1062"/>
      <point x="1118" y="1136"/>
      <point x="1196" y="1210" type="curve"/>
      <point x="1210" y="1304" type="line"/>
      <point x="1106" y="1358"/>
      <point x="856" y="1448"/>
      <point x="712" y="1448" type="curve" smooth="yes"/>
      <point x="364" y="1448"/>
      <point x="194" y="1252"/>
      <point x="194" y="936" type="curve" smooth="yes"/>
      <point x="194" y="782"/>
      <point x="196" y="630"/>
      <point x="196" y="476" type="curve" smooth="yes"/>
      <point x="194" y="302"/>
      <point x="194" y="162"/>
      <point x="192" y="0" type="curve"/>
      <point x="266" y="0" type="line"/>
      <point x="264" y="162"/>
      <point x="262" y="302"/>
      <point x="260" y="476" type="curve"/>
      <point x="260" y="920" type="line" smooth="yes"/>
      <point x="260" y="1218"/>
      <point x="384" y="1382"/>
      <point x="710" y="1384" type="curve"/>
      <point x="826" y="1382"/>
      <point x="1052" y="1310"/>
      <point x="1164" y="1246" type="curve"/>
      <point x="1160" y="1274" type="line"/>
      <point x="924" y="1038" type="line"/>
      <point x="842" y="958"/>
      <point x="764" y="882"/>
      <point x="684" y="804" type="curve"/>
      <point x="684" y="738" type="line"/>
      <point x="1062" y="700"/>
      <point x="1248" y="584"/>
      <point x="1248" y="372" type="curve" smooth="yes"/>
      <point x="1248" y="134"/>
      <point x="1074" y="52"/>
      <point x="844" y="50" type="curve"/>
      <point x="762" y="52"/>
      <point x="632" y="80"/>
      <point x="536" y="110" type="curve"/>
      <point x="536" y="30" type="line"/>
      <point x="630" y="10"/>
      <point x="770" y="-16"/>
    </contour>
  </outline>
</glyph>
<glyph name="endash" format="2">
  <advance width="1140"/>
  <unicode hex="2013"/>
  <outline>
    <contour>
      <point x="140" y="558" type="line"/>
      <point x="256" y="560"/>
      <point x="390" y="562"/>
      <point x="460" y="562" type="curve"/>
      <point x="680" y="562" type="line"/>
      <point x="750" y="562"/>
      <point x="884" y="560"/>
      <point x="1000" y="558" type="curve"/>
      <point x="1000" y="622" type="line"/>
      <point x="884" y="620"/>
      <point x="750" y="618"/>
      <point x="680" y="618" type="curve"/>
      <point x="460" y="618" type="line"/>
      <point x="390" y="618"/>
      <point x="256" y="620"/>
      <point x="140" y="622" type="curve"/>
    </contour>
  </outline>
</glyph>
<glyph name="bullet" format="2">
  <advance width="812"/>
  <unicode hex="2022"/>
  <outline>
    <contour>
      <point x="406" y="382" type="curve" smooth="yes"/>
      <point x="536" y="382"/>
      <point x="612" y="446"/>
      <point x="612" y="602" type="curve" smooth="yes"/>
      <point x="612" y="736"/>
      <point x="536" y="794"/>
      <point x="406" y="794" type="curve" smooth="yes"/>
      <point x="284" y="794"/>
      <point x="200" y="736"/>
      <point x="200" y="602" type="curve" smooth="yes"/>
      <point x="200" y="446"/>
      <point x="284" y="382"/>
    </contour>
  </outline>
</glyph>
<glyph name="colonsign" format="2">
  <advance width="1312"/>
  <unicode hex="20A1"/>
  <outline>
    <contour>
      <point x="798" y="-18" type="curve" smooth="yes"/>
      <point x="890" y="-18"/>
      <point x="1076" y="40"/>
      <point x="1194" y="86" type="curve"/>
      <point x="1182" y="164" type="line"/>
      <point x="1042" y="94"/>
      <point x="856" y="46"/>
      <point x="794" y="46" type="curve"/>
      <point x="396" y="50"/>
      <point x="184" y="332"/>
      <point x="184" y="688" type="curve" smooth="yes"/>
      <point x="184" y="1074"/>
      <point x="426" y="1324"/>
      <point x="770" y="1328" type="curve"/>
      <point x="824" y="1328"/>
      <point x="1012" y="1272"/>
      <point x="1194" y="1204" type="curve"/>
      <point x="1204" y="1278" type="line"/>
      <point x="1094" y="1314"/>
      <point x="862" y="1392"/>
      <point x="772" y="1392" type="curve" smooth="yes"/>
      <point x="400" y="1392"/>
      <point x="120" y="1106"/>
      <point x="120" y="690" type="curve" smooth="yes"/>
      <point x="120" y="294"/>
      <point x="378" y="-18"/>
    </contour>
    <contour>
      <point x="362" y="-274" type="curve"/>
      <point x="432" y="-274" type="line"/>
      <point x="490" y="2"/>
      <point x="552" y="308"/>
      <point x="568" y="384" type="curve"/>
      <point x="688" y="948" type="line"/>
      <point x="704" y="1024"/>
      <point x="772" y="1330"/>
      <point x="832" y="1606" type="curve"/>
      <point x="762" y="1606" type="line"/>
      <point x="706" y="1330"/>
      <point x="642" y="1024"/>
      <point x="626" y="948" type="curve"/>
      <point x="506" y="384" type="line"/>
      <point x="490" y="308"/>
      <point x="424" y="2"/>
    </contour>
    <contour>
      <point x="616" y="-274" type="curve"/>
      <point x="686" y="-274" type="line"/>
      <point x="744" y="2"/>
      <point x="806" y="308"/>
      <point x="822" y="384" type="curve"/>
      <point x="942" y="948" type="line"/>
      <point x="958" y="1024"/>
      <point x="1026" y="1330"/>
      <point x="1086" y="1606" type="curve"/>
      <point x="1016" y="1606" type="line"/>
      <point x="960" y="1330"/>
      <point x="896" y="1024"/>
      <point x="880" y="948" type="curve"/>
      <point x="760" y="384" type="line"/>
      <point x="744" y="308"/>
      <point x="678" y="2"/>
    </contour>
  </outline>
</glyph>
<glyph name="lira" format="2">
  <advance width="1158"/>
  <unicode hex="20A4"/>
  <outline>
    <contour>
      <point x="150" y="0" type="line"/>
      <point x="1088" y="0" type="line"/>
      <point x="1088" y="66" type="line"/>
      <point x="928" y="64"/>
      <point x="666" y="62"/>
      <point x="488" y="60" type="curve"/>
      <point x="192" y="60" type="line"/>
      <point x="202" y="22" type="line"/>
      <point x="342" y="282"/>
      <point x="372" y="358"/>
      <point x="372" y="438" type="curve" smooth="yes"/>
      <point x="372" y="916" type="line" smooth="yes"/>
      <point x="372" y="1200"/>
      <point x="488" y="1326"/>
      <point x="726" y="1328" type="curve"/>
      <point x="762" y="1328"/>
      <point x="892" y="1292"/>
      <point x="1016" y="1246" type="curve"/>
      <point x="1026" y="1316" type="line"/>
      <point x="950" y="1342"/>
      <point x="786" y="1392"/>
      <point x="724" y="1392" type="curve" smooth="yes"/>
      <point x="474" y="1392"/>
      <point x="308" y="1244"/>
      <point x="308" y="924" type="curve" smooth="yes"/>
      <point x="308" y="762"/>
      <point x="310" y="602"/>
      <point x="310" y="440" type="curve"/>
      <point x="310" y="380"/>
      <point x="282" y="298"/>
      <point x="150" y="54" type="curve"/>
    </contour>
    <contour>
      <point x="132" y="774" type="line"/>
      <point x="248" y="776"/>
      <point x="382" y="778"/>
      <point x="452" y="778" type="curve"/>
      <point x="512" y="778" type="line"/>
      <point x="582" y="778"/>
      <point x="716" y="776"/>
      <point x="832" y="774" type="curve"/>
      <point x="832" y="838" type="line"/>
      <point x="716" y="836"/>
      <point x="582" y="834"/>
      <point x="512" y="834" type="curve"/>
      <point x="452" y="834" type="line"/>
      <point x="382" y="834"/>
      <point x="248" y="836"/>
      <point x="132" y="838" type="curve"/>
    </contour>
    <contour>
      <point x="132" y="514" type="line"/>
      <point x="248" y="516"/>
      <point x="382" y="518"/>
      <point x="452" y="518" type="curve"/>
      <point x="512" y="518" type="line"/>
      <point x="582" y="518"/>
      <point x="716" y="516"/>
      <point x="832" y="514" type="curve"/>
      <point x="832" y="578" type="line"/>
      <point x="716" y="576"/>
      <point x="582" y="574"/>
      <point x="512" y="574" type="curve"/>
      <point x="452" y="574" type="line"/>
      <point x="382" y="574"/>
      <point x="248" y="576"/>
      <point x="132" y="578" type="curve"/>
    </contour>
  </outline>
</glyph>
<glyph name="euro" format="2">
  <advance width="1400"/>
  <unicode hex="20AC"/>
  <outline>
    <contour>
      <point x="886" y="-18" type="curve" smooth="yes"/>
      <point x="978" y="-18"/>
      <point x="1166" y="34"/>
      <point x="1284" y="74" type="curve"/>
      <point x="1270" y="150" type="line"/>
      <point x="1130" y="88"/>
      <point x="944" y="46"/>
      <point x="882" y="46" type="curve"/>
      <point x="486" y="50"/>
      <point x="292" y="332"/>
      <point x="292" y="688" type="curve" smooth="yes"/>
      <point x="292" y="1074"/>
      <point x="516" y="1324"/>
      <point x="858" y="1328" type="curve"/>
      <point x="912" y="1328"/>
      <point x="1102" y="1278"/>
      <point x="1284" y="1216" type="curve"/>
      <point x="1294" y="1290" type="line"/>
      <point x="1184" y="1322"/>
      <point x="950" y="1392"/>
      <point x="860" y="1392" type="curve" smooth="yes"/>
      <point x="488" y="1392"/>
      <point x="228" y="1106"/>
      <point x="228" y="690" type="curve" smooth="yes"/>
      <point x="228" y="294"/>
      <point x="466" y="-18"/>
    </contour>
    <contour>
      <point x="62" y="514" type="line"/>
      <point x="178" y="518"/>
      <point x="288" y="518"/>
      <point x="382" y="518" type="curve"/>
      <point x="682" y="518" type="line"/>
      <point x="776" y="518"/>
      <point x="886" y="518"/>
      <point x="1002" y="514" type="curve"/>
      <point x="1002" y="578" type="line"/>
      <point x="886" y="574"/>
      <point x="776" y="574"/>
      <point x="682" y="574" type="curve"/>
      <point x="382" y="574" type="line"/>
      <point x="288" y="574"/>
      <point x="178" y="574"/>
      <point x="62" y="578" type="curve"/>
    </contour>
    <contour>
      <point x="62" y="774" type="line"/>
      <point x="178" y="778"/>
      <point x="288" y="778"/>
      <point x="382" y="778" type="curve"/>
      <point x="742" y="778" type="line"/>
      <point x="836" y="778"/>
      <point x="946" y="778"/>
      <point x="1062" y="774" type="curve"/>
      <point x="1062" y="838" type="line"/>
      <point x="946" y="834"/>
      <point x="836" y="834"/>
      <point x="742" y="834" type="curve"/>
      <point x="382" y="834" type="line"/>
      <point x="288" y="834"/>
      <point x="178" y="834"/>
      <point x="62" y="838" type="curve"/>
    </contour>
  </outline>
</glyph>
<glyph name="kip" format="2">
  <advance width="1302"/>
  <unicode hex="20AD"/>
  <outline>
    <contour>
      <point x="1130" y="0" type="curve"/>
      <point x="1236" y="0" type="line"/>
      <point x="1106" y="116"/>
      <point x="902" y="300"/>
      <point x="756" y="430" type="curve"/>
      <point x="442" y="718" type="line"/>
      <point x="442" y="692" type="line"/>
      <point x="730" y="952" type="line"/>
      <point x="874" y="1080"/>
      <point x="1036" y="1224"/>
      <point x="1198" y="1368" type="curve"/>
      <point x="1092" y="1368" type="line"/>
      <point x="924" y="1214"/>
      <point x="804" y="1104"/>
      <point x="682" y="992" type="curve"/>
      <point x="400" y="736" type="line"/>
      <point x="320" y="736" type="line"/>
      <point x="320" y="680" type="line"/>
      <point x="394" y="680" type="line"/>
      <point x="722" y="378" type="line"/>
      <point x="850" y="260"/>
      <point x="986" y="134"/>
    </contour>
    <contour>
      <point x="270" y="0" type="curve"/>
      <point x="342" y="0" type="line"/>
      <point x="340" y="156"/>
      <point x="338" y="290"/>
      <point x="336" y="456" type="curve"/>
      <point x="336" y="912" type="line"/>
      <point x="338" y="1080"/>
      <point x="340" y="1214"/>
      <point x="342" y="1368" type="curve"/>
      <point x="270" y="1368" type="line"/>
      <point x="272" y="1214"/>
      <point x="272" y="1080"/>
      <point x="274" y="912" type="curve"/>
      <point x="274" y="456" type="line"/>
      <point x="272" y="290"/>
      <point x="272" y="156"/>
    </contour>
    <contour>
      <point x="76" y="676" type="line"/>
      <point x="192" y="678"/>
      <point x="326" y="680"/>
      <point x="396" y="680" type="curve"/>
      <point x="796" y="680" type="line"/>
      <point x="866" y="680"/>
      <point x="1000" y="678"/>
      <point x="1116" y="676" type="curve"/>
      <point x="1116" y="740" type="line"/>
      <point x="1000" y="738"/>
      <point x="866" y="736"/>
      <point x="796" y="736" type="curve"/>
      <point x="396" y="736" type="line"/>
      <point x="326" y="736"/>
      <point x="192" y="738"/>
      <point x="76" y="740" type="curve"/>
    </contour>
  </outline>
</glyph>
<glyph name="cedi" format="2">
  <advance width="1312"/>
  <unicode hex="20B5"/>
  <outline>
    <contour>
      <point x="708" y="-274" type="curve"/>
      <point x="776" y="-274" type="line"/>
      <point x="774" y="2"/>
      <point x="772" y="308"/>
      <point x="772" y="384" type="curve"/>
      <point x="772" y="948" type="line"/>
      <point x="772" y="1024"/>
      <point x="774" y="1330"/>
      <point x="776" y="1606" type="curve"/>
      <point x="708" y="1606" type="line"/>
      <point x="710" y="1330"/>
      <point x="712" y="1024"/>
      <point x="712" y="948" type="curve"/>
      <point x="712" y="384" type="line"/>
      <point x="712" y="308"/>
      <point x="710" y="2"/>
    </contour>
    <contour>
      <point x="798" y="-18" type="curve" smooth="yes"/>
      <point x="890" y="-18"/>
      <point x="1076" y="40"/>
      <point x="1194" y="86" type="curve"/>
      <point x="1182" y="164" type="line"/>
      <point x="1042" y="94"/>
      <point x="856" y="46"/>
      <point x="794" y="46" type="curve"/>
      <point x="396" y="50"/>
      <point x="184" y="332"/>
      <point x="184" y="688" type="curve" smooth="yes"/>
      <point x="184" y="1074"/>
      <point x="426" y="1324"/>
      <point x="770" y="1328" type="curve"/>
      <point x="824" y="1328"/>
      <point x="1012" y="1272"/>
      <point x="1194" y="1204" type="curve"/>
      <point x="1204" y="1278" type="line"/>
      <point x="1094" y="1314"/>
      <point x="862" y="1392"/>
      <point x="772" y="1392" type="curve" smooth="yes"/>
      <point x="400" y="1392"/>
      <point x="120" y="1106"/>
      <point x="120" y="690" type="curve" smooth="yes"/>
      <point x="120" y="294"/>
      <point x="378" y="-18"/>
    </contour>
  </outline>
</glyph>
<glyph name="rupeeIndian" format="2">
  <advance width="1150"/>
  <unicode hex="20B9"/>
  <outline>
    <contour>
      <point x="334" y="614" type="curve"/>
      <point x="702" y="614"/>
      <point x="810" y="806"/>
      <point x="810" y="1018" type="curve" smooth="yes"/>
      <point x="810" y="1152"/>
      <point x="770" y="1244"/>
      <point x="682" y="1298" type="curve"/>
      <point x="682" y="1310" type="line"/>
      <point x="760" y="1310" type="line"/>
      <point x="854" y="1308"/>
      <point x="964" y="1308"/>
      <point x="1080" y="1306" type="curve"/>
      <point x="1080" y="1368" type="line"/>
      <point x="120" y="1368" type="line"/>
      <point x="120" y="1306" type="line"/>
      <point x="208" y="1308"/>
      <point x="294" y="1308"/>
      <point x="382" y="1310" type="curve"/>
      <point x="528" y="1310"/>
      <point x="748" y="1310"/>
      <point x="748" y="1018" type="curve" smooth="yes"/>
      <point x="748" y="752"/>
      <point x="582" y="674"/>
      <point x="308" y="674" type="curve"/>
      <point x="246" y="674"/>
      <point x="182" y="676"/>
      <point x="120" y="678" type="curve"/>
      <point x="120" y="616" type="line"/>
      <point x="172" y="616" type="line"/>
      <point x="192" y="616" type="line"/>
      <point x="240" y="616"/>
      <point x="286" y="614"/>
    </contour>
    <contour>
      <point x="828" y="0" type="curve"/>
      <point x="932" y="0" type="line"/>
      <point x="804" y="108"/>
      <point x="634" y="254"/>
      <point x="500" y="368" type="curve"/>
      <point x="192" y="634" type="line"/>
      <point x="120" y="616" type="line"/>
      <point x="454" y="328" type="line"/>
      <point x="570" y="226"/>
      <point x="696" y="116"/>
    </contour>
    <contour>
      <point x="120" y="970" type="line"/>
      <point x="236" y="972"/>
      <point x="370" y="974"/>
      <point x="440" y="974" type="curve"/>
      <point x="760" y="974" type="line"/>
      <point x="830" y="974"/>
      <point x="964" y="972"/>
      <point x="1080" y="970" type="curve"/>
      <point x="1080" y="1034" type="line"/>
      <point x="964" y="1032"/>
      <point x="830" y="1030"/>
      <point x="760" y="1030" type="curve"/>
      <point x="440" y="1030" type="line"/>
      <point x="370" y="1030"/>
      <point x="236" y="1032"/>
      <point x="120" y="1034" type="curve"/>
    </contour>
  </outline>
</glyph>
<glyph name="liraTurkish" format="2">
  <advance width="1292"/>
  <unicode hex="20BA"/>
  <outline>
    <contour>
      <point x="306" y="0" type="curve"/>
      <point x="360" y="0" type="line"/>
      <point x="376" y="8" type="line"/>
      <point x="374" y="164"/>
      <point x="374" y="298"/>
      <point x="372" y="464" type="curve"/>
      <point x="372" y="912" type="line"/>
      <point x="374" y="1080"/>
      <point x="376" y="1214"/>
      <point x="378" y="1368" type="curve"/>
      <point x="306" y="1368" type="line"/>
      <point x="308" y="1214"/>
      <point x="308" y="1080"/>
      <point x="310" y="912" type="curve"/>
      <point x="310" y="456" type="line"/>
      <point x="308" y="290"/>
      <point x="308" y="156"/>
    </contour>
    <contour>
      <point x="360" y="0" type="line"/>
      <point x="576" y="0" type="line" smooth="yes"/>
      <point x="888" y="0"/>
      <point x="1076" y="148"/>
      <point x="1152" y="404" type="curve"/>
      <point x="1168" y="492"/>
      <point x="1182" y="594"/>
      <point x="1196" y="706" type="curve"/>
      <point x="1126" y="706" type="line"/>
      <point x="1118" y="602"/>
      <point x="1108" y="512"/>
      <point x="1098" y="432" type="curve"/>
      <point x="1030" y="186"/>
      <point x="858" y="60"/>
      <point x="578" y="60" type="curve" smooth="yes"/>
      <point x="360" y="60" type="line"/>
    </contour>
    <contour>
      <point x="158" y="422" type="line"/>
      <point x="266" y="472"/>
      <point x="366" y="518"/>
      <point x="452" y="558" type="curve"/>
      <point x="572" y="612" type="line"/>
      <point x="664" y="652"/>
      <point x="762" y="694"/>
      <point x="868" y="740" type="curve"/>
      <point x="844" y="800" type="line"/>
      <point x="740" y="752"/>
      <point x="640" y="706"/>
      <point x="554" y="666" type="curve"/>
      <point x="424" y="608" type="line"/>
      <point x="340" y="572"/>
      <point x="242" y="530"/>
      <point x="130" y="482" type="curve"/>
    </contour>
    <contour>
      <point x="158" y="702" type="line"/>
      <point x="266" y="752"/>
      <point x="366" y="798"/>
      <point x="452" y="838" type="curve"/>
      <point x="572" y="892" type="line"/>
      <point x="664" y="932"/>
      <point x="762" y="974"/>
      <point x="868" y="1020" type="curve"/>
      <point x="844" y="1080" type="line"/>
      <point x="740" y="1032"/>
      <point x="640" y="986"/>
      <point x="554" y="946" type="curve"/>
      <point x="424" y="888" type="line"/>
      <point x="340" y="852"/>
      <point x="242" y="810"/>
      <point x="130" y="762" type="curve"/>
    </contour>
  </outline>
</glyph>
<glyph name="literSign" format="2">
  <advance width="1084"/>
  <unicode hex="2113"/>
  <outline>
    <contour>
      <point x="716" y="-18" type="curve" smooth="yes"/>
      <point x="772" y="-18"/>
      <point x="892" y="22"/>
      <point x="966" y="54" type="curve"/>
      <point x="952" y="122" type="line"/>
      <point x="866" y="76"/>
      <point x="754" y="42"/>
      <point x="716" y="42" type="curve"/>
      <point x="474" y="44"/>
      <point x="402" y="230"/>
      <point x="402" y="538" type="curve" smooth="yes"/>
      <point x="402" y="832" type="line" smooth="yes"/>
      <point x="402" y="1200"/>
      <point x="510" y="1330"/>
      <point x="640" y="1332" type="curve" smooth="yes"/>
      <point x="756" y="1334"/>
      <point x="844" y="1244"/>
      <point x="844" y="1036" type="curve" smooth="yes"/>
      <point x="844" y="646"/>
      <point x="636" y="450"/>
      <point x="364" y="448" type="curve"/>
      <point x="316" y="448"/>
      <point x="182" y="486"/>
      <point x="80" y="528" type="curve"/>
      <point x="74" y="460" type="line"/>
      <point x="160" y="428"/>
      <point x="298" y="390"/>
      <point x="364" y="390" type="curve" smooth="yes"/>
      <point x="732" y="390"/>
      <point x="904" y="694"/>
      <point x="904" y="1038" type="curve" smooth="yes"/>
      <point x="904" y="1294"/>
      <point x="784" y="1392"/>
      <point x="640" y="1392" type="curve" smooth="yes"/>
      <point x="450" y="1392"/>
      <point x="342" y="1198"/>
      <point x="342" y="832" type="curve" smooth="yes"/>
      <point x="342" y="538" type="line" smooth="yes"/>
      <point x="342" y="192"/>
      <point x="438" y="-18"/>
    </contour>
  </outline>
</glyph>
<glyph name="trademark" format="2">
  <advance width="1704"/>
  <unicode hex="2122"/>
  <outline>
    <contour>
      <point x="756" y="620" type="curve"/>
      <point x="830" y="620" type="line"/>
      <point x="844" y="752"/>
      <point x="860" y="902"/>
      <point x="874" y="1034" type="curve"/>
      <point x="906" y="1298" type="line"/>
      <point x="912" y="1298" type="line"/>
      <point x="1030" y="1012" type="line"/>
      <point x="1080" y="886"/>
      <point x="1134" y="750"/>
      <point x="1186" y="620" type="curve"/>
      <point x="1242" y="620" type="line"/>
      <point x="1294" y="750"/>
      <point x="1346" y="882"/>
      <point x="1398" y="1012" type="curve"/>
      <point x="1516" y="1298" type="line"/>
      <point x="1522" y="1298" type="line"/>
      <point x="1554" y="1034" type="line"/>
      <point x="1568" y="902"/>
      <point x="1582" y="756"/>
      <point x="1596" y="620" type="curve"/>
      <point x="1670" y="620" type="line"/>
      <point x="1658" y="704"/>
      <point x="1644" y="802"/>
      <point x="1632" y="886" type="curve"/>
      <point x="1600" y="1150" type="line"/>
      <point x="1592" y="1230"/>
      <point x="1582" y="1328"/>
      <point x="1572" y="1418" type="curve"/>
      <point x="1498" y="1418" type="line"/>
      <point x="1448" y="1292"/>
      <point x="1404" y="1180"/>
      <point x="1360" y="1070" type="curve"/>
      <point x="1218" y="726" type="line"/>
      <point x="1212" y="726" type="line"/>
      <point x="1068" y="1072" type="line"/>
      <point x="1024" y="1184"/>
      <point x="978" y="1300"/>
      <point x="932" y="1418" type="curve"/>
      <point x="856" y="1418" type="line"/>
      <point x="846" y="1322"/>
      <point x="838" y="1244"/>
      <point x="828" y="1148" type="curve"/>
      <point x="796" y="890" type="line"/>
      <point x="782" y="794"/>
      <point x="770" y="716"/>
    </contour>
    <contour>
      <point x="324" y="620" type="curve"/>
      <point x="398" y="620" type="line"/>
      <point x="396" y="710"/>
      <point x="394" y="788"/>
      <point x="392" y="886" type="curve"/>
      <point x="392" y="1144" type="line"/>
      <point x="394" y="1242"/>
      <point x="396" y="1320"/>
      <point x="398" y="1410" type="curve"/>
      <point x="398" y="1418" type="line"/>
      <point x="324" y="1418" type="line"/>
      <point x="324" y="1410" type="line"/>
      <point x="326" y="1320"/>
      <point x="328" y="1242"/>
      <point x="330" y="1144" type="curve"/>
      <point x="330" y="886" type="line"/>
      <point x="328" y="788"/>
      <point x="326" y="710"/>
    </contour>
    <contour>
      <point x="40" y="1354" type="line"/>
      <point x="104" y="1356"/>
      <point x="172" y="1358"/>
      <point x="266" y="1360" type="curve"/>
      <point x="340" y="1360" type="line"/>
      <point x="340" y="1418" type="line"/>
      <point x="40" y="1418" type="line"/>
    </contour>
    <contour>
      <point x="382" y="1360" type="line"/>
      <point x="454" y="1360" type="line"/>
      <point x="548" y="1358"/>
      <point x="616" y="1356"/>
      <point x="680" y="1354" type="curve"/>
      <point x="680" y="1418" type="line"/>
      <point x="382" y="1418" type="line"/>
    </contour>
  </outline>
</glyph>
<glyph name="Ohm" format="2">
  <advance width="1590"/>
  <unicode hex="2126"/>
  <outline>
    <contour>
      <point x="80" y="0" type="line"/>
      <point x="638" y="0" type="line"/>
      <point x="636" y="134"/>
      <point x="636" y="246"/>
      <point x="634" y="390" type="curve"/>
      <point x="358" y="544"/>
      <point x="218" y="702"/>
      <point x="218" y="908" type="curve" smooth="yes"/>
      <point x="218" y="1178"/>
      <point x="402" y="1376"/>
      <point x="798" y="1384" type="curve"/>
      <point x="1180" y="1376"/>
      <point x="1372" y="1194"/>
      <point x="1372" y="908" type="curve" smooth="yes"/>
      <point x="1372" y="704"/>
      <point x="1234" y="544"/>
      <point x="956" y="390" type="curve"/>
      <point x="954" y="246"/>
      <point x="954" y="134"/>
      <point x="952" y="0" type="curve"/>
      <point x="1510" y="0" type="line"/>
      <point x="1510" y="70" type="line"/>
      <point x="1406" y="68"/>
      <point x="1244" y="64"/>
      <point x="1140" y="62" type="curve"/>
      <point x="988" y="62" type="line"/>
      <point x="1024" y="32" type="line"/>
      <point x="1022" y="180"/>
      <point x="1022" y="264"/>
      <point x="1020" y="390" type="curve"/>
      <point x="968" y="320" type="line"/>
      <point x="1248" y="484"/>
      <point x="1438" y="648"/>
      <point x="1438" y="906" type="curve" smooth="yes"/>
      <point x="1438" y="1216"/>
      <point x="1206" y="1450"/>
      <point x="798" y="1450" type="curve" smooth="yes"/>
      <point x="396" y="1450"/>
      <point x="152" y="1222"/>
      <point x="152" y="906" type="curve" smooth="yes"/>
      <point x="152" y="664"/>
      <point x="328" y="488"/>
      <point x="622" y="320" type="curve"/>
      <point x="570" y="390" type="line"/>
      <point x="568" y="264"/>
      <point x="568" y="180"/>
      <point x="566" y="32" type="curve"/>
      <point x="602" y="62" type="line"/>
      <point x="450" y="62" type="line"/>
      <point x="346" y="64"/>
      <point x="184" y="68"/>
      <point x="80" y="70" type="curve"/>
    </contour>
  </outline>
</glyph>
<glyph name="minus" format="2">
  <advance width="1120"/>
  <unicode hex="2212"/>
  <outline>
    <contour>
      <point x="140" y="556" type="line"/>
      <point x="256" y="558"/>
      <point x="390" y="560"/>
      <point x="460" y="560" type="curve"/>
      <point x="660" y="560" type="line"/>
      <point x="730" y="560"/>
      <point x="864" y="558"/>
      <point x="980" y="556" type="curve"/>
      <point x="980" y="624" type="line"/>
      <point x="864" y="622"/>
      <point x="730" y="620"/>
      <point x="660" y="620" type="curve"/>
      <point x="460" y="620" type="line"/>
      <point x="390" y="620"/>
      <point x="256" y="622"/>
      <point x="140" y="624" type="curve"/>
    </contour>
  </outline>
</glyph>
<glyph name="divisionslash" format="2">
  <advance width="724"/>
  <unicode hex="2215"/>
  <outline>
    <contour>
      <point x="76" y="0" type="curve"/>
      <point x="148" y="0" type="line"/>
      <point x="200" y="150"/>
      <point x="240" y="270"/>
      <point x="304" y="456" type="curve"/>
      <point x="476" y="948" type="line"/>
      <point x="546" y="1142"/>
      <point x="590" y="1264"/>
      <point x="648" y="1426" type="curve"/>
      <point x="576" y="1426" type="line"/>
      <point x="524" y="1274"/>
      <point x="478" y="1140"/>
      <point x="412" y="948" type="curve"/>
      <point x="240" y="456" type="line"/>
      <point x="174" y="272"/>
      <point x="128" y="146"/>
    </contour>
  </outline>
</glyph>
<glyph name="radical" format="2">
  <advance width="1122"/>
  <unicode hex="221A"/>
  <outline>
    <contour>
      <point x="656" y="0" type="curve"/>
      <point x="736" y="0" type="line"/>
      <point x="770" y="144"/>
      <point x="800" y="270"/>
      <point x="844" y="456" type="curve"/>
      <point x="1016" y="1156" type="line"/>
      <point x="1066" y="1350"/>
      <point x="1100" y="1482"/>
      <point x="1140" y="1636" type="curve"/>
      <point x="1068" y="1636" type="line"/>
      <point x="1032" y="1484"/>
      <point x="1000" y="1350"/>
      <point x="954" y="1156" type="curve"/>
      <point x="694" y="100" type="line"/>
      <point x="682" y="100" type="line"/>
      <point x="542" y="410" type="line"/>
      <point x="490" y="528"/>
      <point x="440" y="642"/>
      <point x="388" y="760" type="curve"/>
      <point x="316" y="760" type="line"/>
      <point x="454" y="456" type="line"/>
      <point x="536" y="270"/>
      <point x="592" y="144"/>
    </contour>
    <contour>
      <point x="54" y="696" type="line"/>
      <point x="170" y="698"/>
      <point x="304" y="700"/>
      <point x="374" y="700" type="curve"/>
      <point x="374" y="760" type="line"/>
      <point x="304" y="760"/>
      <point x="170" y="762"/>
      <point x="54" y="764" type="curve"/>
    </contour>
  </outline>
</glyph>
<glyph name="lozenge" format="2">
  <advance width="1180"/>
  <unicode hex="25CA"/>
  <outline>
    <contour>
      <point x="538" y="20" type="curve"/>
      <point x="642" y="20" type="line"/>
      <point x="776" y="212"/>
      <point x="910" y="402"/>
      <point x="1044" y="594" type="curve"/>
      <point x="910" y="786"/>
      <point x="776" y="976"/>
      <point x="642" y="1168" type="curve"/>
      <point x="538" y="1168" type="line"/>
      <point x="404" y="976"/>
      <point x="270" y="786"/>
      <point x="136" y="594" type="curve"/>
      <point x="270" y="402"/>
      <point x="404" y="212"/>
    </contour>
    <contour>
      <point x="584" y="76" type="line"/>
      <point x="460" y="248"/>
      <point x="334" y="422"/>
      <point x="210" y="594" type="curve"/>
      <point x="334" y="766"/>
      <point x="460" y="940"/>
      <point x="584" y="1112" type="curve"/>
      <point x="596" y="1112" type="line"/>
      <point x="720" y="940"/>
      <point x="846" y="766"/>
      <point x="970" y="594" type="curve"/>
      <point x="846" y="422"/>
      <point x="720" y="248"/>
      <point x="596" y="76" type="curve"/>
    </contour>
  </outline>
</glyph>
<glyph name="_notequal" format="2">
  <advance width="1120"/>
  <outline>
    <contour>
      <point x="454" y="70" type="line"/>
      <point x="482" y="182"/>
      <point x="514" y="312"/>
      <point x="532" y="380" type="curve"/>
      <point x="642" y="786" type="line"/>
      <point x="660" y="854"/>
      <point x="696" y="982"/>
      <point x="728" y="1094" type="curve"/>
      <point x="666" y="1110" type="line"/>
      <point x="638" y="998"/>
      <point x="606" y="868"/>
      <point x="588" y="800" type="curve"/>
      <point x="478" y="394" type="line"/>
      <point x="460" y="326"/>
      <point x="424" y="198"/>
      <point x="392" y="86" type="curve"/>
    </contour>
  </outline>
</glyph>
<glyph name="_question" format="2">
  <advance width="800"/>
  <outline>
    <contour>
      <point x="398" y="420" type="curve" smooth="yes"/>
      <point x="422" y="420"/>
      <point x="480" y="428"/>
      <point x="534" y="436" type="curve"/>
      <point x="528" y="500" type="line"/>
      <point x="486" y="490"/>
      <point x="426" y="476"/>
      <point x="398" y="476" type="curve"/>
      <point x="306" y="478"/>
      <point x="228" y="512"/>
      <point x="228" y="620" type="curve" smooth="yes"/>
      <point x="228" y="716"/>
      <point x="318" y="784"/>
      <point x="418" y="858" type="curve" smooth="yes"/>
      <point x="540" y="948"/>
      <point x="676" y="1052"/>
      <point x="676" y="1228" type="curve" smooth="yes"/>
      <point x="676" y="1402"/>
      <point x="542" y="1498"/>
      <point x="358" y="1498" type="curve" smooth="yes"/>
      <point x="302" y="1498"/>
      <point x="146" y="1452"/>
      <point x="66" y="1428" type="curve"/>
      <point x="72" y="1358" type="line"/>
      <point x="194" y="1400"/>
      <point x="322" y="1434"/>
      <point x="360" y="1434" type="curve"/>
      <point x="518" y="1432"/>
      <point x="614" y="1364"/>
      <point x="614" y="1230" type="curve" smooth="yes"/>
      <point x="614" y="1080"/>
      <point x="494" y="988"/>
      <point x="378" y="902" type="curve" smooth="yes"/>
      <point x="270" y="822"/>
      <point x="166" y="744"/>
      <point x="166" y="620" type="curve" smooth="yes"/>
      <point x="166" y="498"/>
      <point x="262" y="420"/>
    </contour>
  </outline>
</glyph>
<glyph name="circumflexcomb.case" format="2">
  <anchor x="600" y="988" name="_top"/>
  <anchor x="598" y="1450" name="top"/>
  <outline>
    <contour>
      <point x="862" y="1150" type="curve"/>
      <point x="928" y="1152" type="line"/>
      <point x="832" y="1268"/>
      <point x="738" y="1386"/>
      <point x="644" y="1500" type="curve"/>
      <point x="556" y="1500" type="line"/>
      <point x="656" y="1382"/>
      <point x="756" y="1268"/>
    </contour>
    <contour>
      <point x="266" y="1154" type="curve"/>
      <point x="332" y="1154" type="line"/>
      <point x="438" y="1270"/>
      <point x="538" y="1384"/>
      <point x="638" y="1500" type="curve"/>
      <point x="550" y="1500" type="line"/>
      <point x="456" y="1384"/>
      <point x="362" y="1270"/>
    </contour>
  </outline>
</glyph>
<glyph name="circumflexcomb.narrow" format="2">
  <anchor x="600" y="988" name="_top"/>
  <anchor x="598" y="1490" name="top"/>
  <outline>
    <contour>
      <point x="830" y="1170" type="curve"/>
      <point x="888" y="1172" type="line"/>
      <point x="804" y="1300"/>
      <point x="720" y="1430"/>
      <point x="638" y="1554" type="curve"/>
      <point x="560" y="1554" type="line"/>
      <point x="648" y="1428"/>
      <point x="736" y="1304"/>
    </contour>
    <contour>
      <point x="306" y="1174" type="curve"/>
      <point x="364" y="1174" type="line"/>
      <point x="456" y="1304"/>
      <point x="546" y="1430"/>
      <point x="634" y="1554" type="curve"/>
      <point x="556" y="1554" type="line"/>
      <point x="474" y="1428"/>
      <point x="390" y="1302"/>
    </contour>
  </outline>
</glyph>
<glyph name="circumflexcomb_hookabovecomb" format="2">
  <anchor x="597" y="988" name="_top"/>
  <outline>
    <contour>
      <point x="862" y="1170" type="curve"/>
      <point x="928" y="1172" type="line"/>
      <point x="832" y="1300"/>
      <point x="738" y="1430"/>
      <point x="644" y="1554" type="curve"/>
      <point x="556" y="1554" type="line"/>
      <point x="656" y="1426"/>
      <point x="756" y="1300"/>
    </contour>
    <contour>
      <point x="266" y="1174" type="curve"/>
      <point x="332" y="1174" type="line"/>
      <point x="438" y="1302"/>
      <point x="538" y="1428"/>
      <point x="638" y="1554" type="curve"/>
      <point x="550" y="1554" type="line"/>
      <point x="456" y="1428"/>
      <point x="362" y="1302"/>
    </contour>
    <contour>
      <point x="846" y="1480" type="line"/>
      <point x="906" y="1480" type="line"/>
      <point x="906" y="1550" type="line"/>
      <point x="978" y="1580"/>
      <point x="1082" y="1634"/>
      <point x="1082" y="1746" type="curve" smooth="yes"/>
      <point x="1082" y="1850"/>
      <point x="988" y="1900"/>
      <point x="894" y="1900" type="curve" smooth="yes"/>
      <point x="864" y="1900"/>
      <point x="760" y="1870"/>
      <point x="710" y="1854" type="curve"/>
      <point x="716" y="1786" type="line"/>
      <point x="788" y="1812"/>
      <point x="870" y="1838"/>
      <point x="892" y="1838" type="curve"/>
      <point x="960" y="1836"/>
      <point x="1020" y="1814"/>
      <point x="1020" y="1746" type="curve" smooth="yes"/>
      <point x="1020" y="1672"/>
      <point x="946" y="1620"/>
      <point x="846" y="1586" type="curve"/>
    </contour>
  </outline>
</glyph>
<glyph name="circumflexcomb_tildecomb.case" format="2">
  <anchor x="600" y="988" name="_top"/>
  <outline>
    <contour>
      <point x="266" y="1154" type="curve"/>
      <point x="332" y="1154" type="line"/>
      <point x="438" y="1270"/>
      <point x="538" y="1384"/>
      <point x="638" y="1500" type="curve"/>
      <point x="550" y="1500" type="line"/>
      <point x="456" y="1384"/>
      <point x="362" y="1270"/>
    </contour>
    <contour>
      <point x="862" y="1150" type="curve"/>
      <point x="928" y="1152" type="line"/>
      <point x="832" y="1268"/>
      <point x="738" y="1386"/>
      <point x="644" y="1500" type="curve"/>
      <point x="556" y="1500" type="line"/>
      <point x="656" y="1382"/>
      <point x="756" y="1268"/>
    </contour>
    <contour>
      <point x="760" y="1554" type="curve" smooth="yes"/>
      <point x="864" y="1554"/>
      <point x="926" y="1632"/>
      <point x="926" y="1776" type="curve"/>
      <point x="870" y="1776" type="line"/>
      <point x="862" y="1664"/>
      <point x="836" y="1620"/>
      <point x="762" y="1616" type="curve"/>
      <point x="642" y="1620"/>
      <point x="580" y="1802"/>
      <point x="436" y="1802" type="curve" smooth="yes"/>
      <point x="332" y="1802"/>
      <point x="270" y="1724"/>
      <point x="270" y="1580" type="curve"/>
      <point x="326" y="1580" type="line"/>
      <point x="332" y="1692"/>
      <point x="362" y="1736"/>
      <point x="434" y="1740" type="curve"/>
      <point x="554" y="1736"/>
      <point x="616" y="1554"/>
    </contour>
  </outline>
</glyph>
<glyph name="colonsign.BRACKET.140" format="2">
  <advance width="1312"/>
  <outline>
    <contour>
      <point x="798" y="-18" type="curve" smooth="yes"/>
      <point x="890" y="-18"/>
      <point x="1076" y="40"/>
      <point x="1194" y="86" type="curve"/>
      <point x="1182" y="164" type="line"/>
      <point x="1042" y="94"/>
      <point x="856" y="46"/>
      <point x="794" y="46" type="curve"/>
      <point x="396" y="50"/>
      <point x="184" y="332"/>
      <point x="184" y="688" type="curve" smooth="yes"/>
      <point x="184" y="1074"/>
      <point x="426" y="1324"/>
      <point x="770" y="1328" type="curve"/>
      <point x="824" y="1328"/>
      <point x="1012" y="1272"/>
      <point x="1194" y="1204" type="curve"/>
      <point x="1204" y="1278" type="line"/>
      <point x="1094" y="1314"/>
      <point x="862" y="1392"/>
      <point x="772" y="1392" type="curve" smooth="yes"/>
      <point x="400" y="1392"/>
      <point x="120" y="1106"/>
      <point x="120" y="690" type="curve" smooth="yes"/>
      <point x="120" y="294"/>
      <point x="378" y="-18"/>
    </contour>
    <contour>
      <point x="362" y="-274" type="curve"/>
      <point x="432" y="-274" type="line"/>
      <point x="458" y="-150"/>
      <point x="484" y="-24"/>
      <point x="508" y="90" type="curve"/>
      <point x="442" y="90" type="line"/>
      <point x="418" y="-20"/>
      <point x="390" y="-146"/>
    </contour>
    <contour>
      <point x="616" y="-274" type="curve"/>
      <point x="686" y="-274" type="line"/>
      <point x="706" y="-176"/>
      <point x="728" y="-70"/>
      <point x="746" y="18" type="curve"/>
      <point x="680" y="18" type="line"/>
      <point x="660" y="-74"/>
      <point x="638" y="-174"/>
    </contour>
    <contour>
      <point x="710" y="1350" type="curve"/>
      <point x="776" y="1350" type="line"/>
      <point x="794" y="1432"/>
      <point x="814" y="1524"/>
      <point x="832" y="1606" type="curve"/>
      <point x="762" y="1606" type="line"/>
      <point x="744" y="1518"/>
      <point x="726" y="1430"/>
    </contour>
    <contour>
      <point x="958" y="1328" type="curve"/>
      <point x="1026" y="1328" type="line"/>
      <point x="1046" y="1420"/>
      <point x="1066" y="1514"/>
      <point x="1086" y="1606" type="curve"/>
      <point x="1016" y="1606" type="line"/>
      <point x="996" y="1510"/>
      <point x="978" y="1424"/>
    </contour>
  </outline>
</glyph>
<glyph name="dieresiscomb.narrow" format="2">
  <anchor x="598" y="988" name="_top"/>
  <anchor x="596" y="1350" name="top"/>
  <outline>
    <contour>
      <point x="756" y="1256" type="curve" smooth="yes"/>
      <point x="808" y="1256"/>
      <point x="828" y="1286"/>
      <point x="828" y="1350" type="curve" smooth="yes"/>
      <point x="828" y="1402"/>
      <point x="808" y="1422"/>
      <point x="758" y="1422" type="curve" smooth="yes"/>
      <point x="706" y="1422"/>
      <point x="686" y="1404"/>
      <point x="686" y="1356" type="curve" smooth="yes"/>
      <point x="686" y="1286"/>
      <point x="706" y="1256"/>
    </contour>
    <contour>
      <point x="436" y="1256" type="curve" smooth="yes"/>
      <point x="488" y="1256"/>
      <point x="508" y="1286"/>
      <point x="508" y="1350" type="curve" smooth="yes"/>
      <point x="508" y="1402"/>
      <point x="488" y="1422"/>
      <point x="438" y="1422" type="curve" smooth="yes"/>
      <point x="386" y="1422"/>
      <point x="366" y="1404"/>
      <point x="366" y="1356" type="curve" smooth="yes"/>
      <point x="366" y="1286"/>
      <point x="386" y="1256"/>
    </contour>
  </outline>
</glyph>
<glyph name="hungarumlautcomb.case" format="2">
  <anchor x="600" y="988" name="_top"/>
  <anchor x="598" y="1432" name="top"/>
  <outline>
    <contour>
      <point x="688" y="1152" type="curve"/>
      <point x="754" y="1154" type="line"/>
      <point x="860" y="1270"/>
      <point x="964" y="1384"/>
      <point x="1064" y="1502" type="curve"/>
      <point x="972" y="1502" type="line"/>
      <point x="878" y="1386"/>
      <point x="784" y="1268"/>
    </contour>
    <contour>
      <point x="360" y="1152" type="curve"/>
      <point x="422" y="1154" type="line"/>
      <point x="516" y="1270"/>
      <point x="606" y="1384"/>
      <point x="692" y="1502" type="curve"/>
      <point x="604" y="1502" type="line"/>
      <point x="524" y="1384"/>
      <point x="444" y="1268"/>
    </contour>
  </outline>
</glyph>
<glyph name="ogonekcomb.a" format="2">
  <anchor x="598" y="0" name="_ogonek"/>
  <outline>
    <contour>
      <point x="562" y="-400" type="curve" smooth="yes"/>
      <point x="576" y="-400"/>
      <point x="622" y="-394"/>
      <point x="666" y="-388" type="curve"/>
      <point x="666" y="-328" type="line"/>
      <point x="644" y="-332"/>
      <point x="600" y="-338"/>
      <point x="562" y="-342" type="curve"/>
      <point x="492" y="-342"/>
      <point x="446" y="-312"/>
      <point x="446" y="-246" type="curve" smooth="yes"/>
      <point x="446" y="-160"/>
      <point x="544" y="-62"/>
      <point x="658" y="0" type="curve"/>
      <point x="622" y="42" type="line"/>
      <point x="604" y="42" type="line"/>
      <point x="604" y="20" type="line"/>
      <point x="450" y="-74"/>
      <point x="384" y="-164"/>
      <point x="384" y="-252" type="curve" smooth="yes"/>
      <point x="384" y="-344"/>
      <point x="456" y="-400"/>
    </contour>
  </outline>
</glyph>
<glyph name="one.dnom" format="2">
  <advance width="606"/>
  <outline>
    <contour>
      <point x="78" y="688" type="line"/>
      <point x="192" y="752"/>
      <point x="294" y="808"/>
      <point x="384" y="858" type="curve"/>
      <point x="384" y="920" type="line"/>
      <point x="274" y="862"/>
      <point x="166" y="804"/>
      <point x="60" y="748" type="curve"/>
    </contour>
    <contour>
      <point x="354" y="0" type="curve"/>
      <point x="420" y="0" type="line"/>
      <point x="418" y="100"/>
      <point x="418" y="186"/>
      <point x="416" y="296" type="curve"/>
      <point x="416" y="600" type="line"/>
      <point x="418" y="712"/>
      <point x="418" y="820"/>
      <point x="420" y="918" type="curve"/>
      <point x="384" y="920" type="line"/>
      <point x="356" y="888" type="line"/>
      <point x="356" y="790"/>
      <point x="358" y="692"/>
      <point x="358" y="594" type="curve"/>
      <point x="358" y="296" type="line"/>
      <point x="356" y="186"/>
      <point x="356" y="100"/>
    </contour>
  </outline>
</glyph>
<glyph name="seven.dnom" format="2">
  <advance width="748"/>
  <outline>
    <contour>
      <point x="178" y="0" type="curve"/>
      <point x="256" y="0" type="line"/>
      <point x="308" y="110"/>
      <point x="364" y="230"/>
      <point x="416" y="340" type="curve"/>
      <point x="510" y="536" type="line"/>
      <point x="564" y="644"/>
      <point x="620" y="760"/>
      <point x="674" y="868" type="curve"/>
      <point x="674" y="918" type="line"/>
      <point x="40" y="918" type="line"/>
      <point x="40" y="856" type="line"/>
      <point x="172" y="858"/>
      <point x="324" y="860"/>
      <point x="406" y="860" type="curve"/>
      <point x="620" y="860" type="line"/>
      <point x="606" y="876" type="line"/>
      <point x="574" y="806"/>
      <point x="540" y="734"/>
      <point x="508" y="664" type="curve"/>
      <point x="368" y="374" type="line"/>
      <point x="306" y="252"/>
      <point x="244" y="130"/>
    </contour>
  </outline>
</glyph>
<glyph name="three.dnom" format="2">
  <advance width="806"/>
  <outline>
    <contour>
      <point x="392" y="-12" type="curve" smooth="yes"/>
      <point x="608" y="-12"/>
      <point x="716" y="100"/>
      <point x="716" y="242" type="curve" smooth="yes"/>
      <point x="716" y="390"/>
      <point x="594" y="466"/>
      <point x="496" y="484" type="curve"/>
      <point x="496" y="492" type="line"/>
      <point x="592" y="514"/>
      <point x="680" y="600"/>
      <point x="680" y="716" type="curve" smooth="yes"/>
      <point x="680" y="850"/>
      <point x="560" y="934"/>
      <point x="400" y="934" type="curve" smooth="yes"/>
      <point x="336" y="934"/>
      <point x="176" y="874"/>
      <point x="100" y="846" type="curve"/>
      <point x="108" y="774" type="line"/>
      <point x="232" y="830"/>
      <point x="360" y="874"/>
      <point x="396" y="874" type="curve"/>
      <point x="530" y="872"/>
      <point x="618" y="822"/>
      <point x="618" y="710" type="curve" smooth="yes"/>
      <point x="618" y="598"/>
      <point x="528" y="514"/>
      <point x="324" y="512" type="curve"/>
      <point x="300" y="512"/>
      <point x="276" y="514"/>
      <point x="252" y="514" type="curve"/>
      <point x="252" y="452" type="line"/>
      <point x="276" y="452"/>
      <point x="300" y="454"/>
      <point x="324" y="454" type="curve"/>
      <point x="530" y="452"/>
      <point x="654" y="380"/>
      <point x="654" y="244" type="curve" smooth="yes"/>
      <point x="654" y="130"/>
      <point x="580" y="50"/>
      <point x="388" y="48" type="curve"/>
      <point x="318" y="48"/>
      <point x="210" y="86"/>
      <point x="86" y="136" type="curve"/>
      <point x="76" y="66" type="line"/>
      <point x="192" y="28"/>
      <point x="322" y="-12"/>
    </contour>
  </outline>
</glyph>
